<svg xmlns="http://www.w3.org/2000/svg" xmlns:xlink="http://www.w3.org/1999/xlink" width="305" height="42" viewBox="0 0 305 42">
  <defs>
    <clipPath id="clip-Artboard_8">
      <rect width="305" height="42"/>
    </clipPath>
  </defs>
  <g id="Artboard_8" data-name="Artboard – 8" clip-path="url(#clip-Artboard_8)">
    <g id="aelia-logo" transform="translate(2 1.136)">
      <path id="Path_6831" data-name="Path 6831" d="M0-.229,8.554-.235H9.77l3.253,0,3.344,0,2.059,0h2.231a35.859,35.859,0,0,1,4.705.228L25.476,0a32.114,32.114,0,0,1,5.644,1.234l.187.058A30.745,30.745,0,0,1,41.66,6.951c.086.071.173.141.261.21.346.276.67.571.991.875.173.164.348.325.529.48.248.215.48.445.711.677l.122.121c.228.228.446.462.657.707.127.147.26.288.392.431.288.312.558.636.823.967l.156.191c.68.836,1.292,1.719,1.9,2.61q.191.281.384.562l.074.108q.4.582.806,1.161t.794,1.153q.361.528.728,1.053.554.795,1.1,1.6.626.916,1.262,1.826.4.58.8,1.163c.349.51.7,1.016,1.059,1.521a4.3,4.3,0,0,0,.721-.936c.26-.4.525-.789.806-1.172.152-.209.3-.422.443-.636q.418-.615.844-1.224.411-.589.816-1.182t.816-1.182q.554-.795,1.1-1.6.63-.922,1.27-1.838.29-.416.576-.835.853-1.252,1.816-2.417c.071-.086.141-.173.21-.261.335-.419.7-.807,1.068-1.2.116-.123.23-.248.343-.373A13.932,13.932,0,0,1,67.288,8.27c.14-.123.275-.25.411-.377.364-.341.735-.666,1.126-.976L69,6.777a32.163,32.163,0,0,1,4.969-3.271q.2-.107.4-.217a26.6,26.6,0,0,1,4.137-1.774l.206-.071a31.38,31.38,0,0,1,8.01-1.617l.2-.014C87.91-.25,88.9-.237,89.89-.236h12.193l8.387,0a2.028,2.028,0,0,1-.246.481l-.08.111-.086.119-.185.259-.1.135c-.152.214-.3.431-.447.648q-.412.6-.83,1.2-.554.795-1.1,1.6-.568.832-1.145,1.658-.557.8-1.106,1.606-.626.916-1.262,1.826-.316.454-.627.91c-.577.848-1.171,1.674-1.827,2.464-.118.142-.233.286-.349.43-.2.247-.412.485-.627.72-.105.116-.207.234-.309.353-.259.3-.543.571-.823.848q-.252.251-.5.5l-.247.248-.123.124c-.263.264-.533.514-.816.755l-.091.079a30.017,30.017,0,0,1-4.582,3.29c-.123.071-.246.144-.369.217-3.954,2.32-8.367,3.631-17.1,4.244H34.9c-1.337,0-2.675-.007-4.007-.134l-.114-.011A32,32,0,0,1,24.2,23.125l-.2-.062a30.714,30.714,0,0,1-8.243-4.046l-.1-.072c-.778-.541-1.534-1.119-2.26-1.729L13.3,17.14l-.3-.251-.088-.075c-.618-.529-1.2-1.1-1.775-1.672l-.322-.322c-.336-.336-.667-.673-.973-1.037l-.16-.183c-.439-.5-.847-1.027-1.246-1.562l-.1-.13c-.462-.617-.906-1.246-1.338-1.884q-.191-.281-.383-.561l-.074-.108q-.343-.5-.689-.993-.557-.8-1.106-1.606-.626-.917-1.262-1.826-.4-.575-.794-1.153-.361-.528-.728-1.053-.552-.792-1.1-1.591L.443.506.366.394C.27.253.173.113.067-.022A.241.241,0,0,1,0-.229Z" transform="translate(0 15.014)" fill="#03aad1"/>
      <path id="Path_6832" data-name="Path 6832" d="M-466.49-.032H-454.3l8.387,0a2.028,2.028,0,0,1-.246.481l-.08.111-.086.119-.185.259-.1.135c-.152.214-.3.431-.447.648q-.412.6-.83,1.2-.554.795-1.1,1.6-.568.832-1.145,1.658-.557.8-1.106,1.606-.626.916-1.262,1.826-.316.454-.627.91c-.577.848-1.171,1.674-1.827,2.464-.118.142-.233.286-.349.43-.2.247-.412.485-.627.72-.105.116-.207.234-.309.353-.259.3-.543.571-.823.848q-.257.256-.512.514l-.255.256-.13.132-.125.126-.113.114a.6.6,0,0,1-.417.217l-.176-.008-.2-.008-.214-.01-.222-.009-.676-.031-.193-.009q-.646-.03-1.292-.064l-.424-.022-.912-.047-1.356-.069-2.563-.131-1.978-.1-.285-.015-.43-.022-3.985-.2-.151-.008-.759-.039-.152-.008-.3-.016-4.755-.244-5.35-.274-.57-.029-.142-.007-2.119-.109-2.406-.123-1.347-.069-1-.052-.407-.021-.551-.028-.162-.008-.148-.008-.127-.007a1.985,1.985,0,0,1-.342-.068,2.154,2.154,0,0,1,.268-.517l.094-.134.1-.143.106-.15c.566-.8,1.145-1.581,1.77-2.335.071-.086.141-.173.21-.261.335-.419.7-.807,1.068-1.2.116-.123.23-.248.343-.373a13.922,13.922,0,0,1,1.255-1.246c.14-.123.275-.25.411-.377.364-.341.735-.666,1.126-.976l.176-.141A32.165,32.165,0,0,1-482.41,3.71q.2-.107.4-.217a26.6,26.6,0,0,1,4.137-1.774l.206-.071a31.381,31.381,0,0,1,8.01-1.617l.2-.014C-468.47-.047-467.48-.033-466.49-.032Z" transform="translate(556.38 14.811)" fill="#51c1d4"/>
      <path id="Path_6833" data-name="Path 6833" d="M0-.229,8.554-.235H9.77l3.253,0,3.344,0,2.059,0h2.231a35.859,35.859,0,0,1,4.705.228L25.476,0a32.114,32.114,0,0,1,5.644,1.234l.187.058A30.745,30.745,0,0,1,41.66,6.951c.086.071.173.141.261.21.346.276.67.571.991.875.173.164.348.325.529.48.248.215.48.445.711.677l.122.121c.228.228.446.462.657.707.127.147.26.288.392.431.288.312.558.636.823.967l.156.191c.649.8,1.235,1.635,1.812,2.485q.163.24.329.477l.072.1.19.269c.085.133.085.133.085.246-1.919-.081-3.837-.177-5.754-.275l-1.314-.067-2.571-.132L36.905,14.6l-.3-.016-.457-.023-4.235-.217-.161-.008-1.29-.066-5.046-.258-5.685-.291-.606-.031-.151-.008-2.249-.115-2.553-.131-1.428-.073-.954-.049-.543-.028-.586-.03-.169-.008-.473-.027-.184-.01L9.65,13.2l-.166-.01a.627.627,0,0,1-.445-.326l-.075-.1q-.081-.107-.159-.215c-.087-.12-.176-.239-.265-.357-.684-.907-1.32-1.849-1.96-2.787q-.361-.528-.728-1.053-.554-.795-1.1-1.6-.626-.917-1.262-1.826-.4-.575-.794-1.153-.361-.528-.728-1.053-.552-.792-1.1-1.591L.443.506.366.394C.27.253.173.113.067-.022A.241.241,0,0,1,0-.229Z" transform="translate(0 15.014)" fill="#51bfd4"/>
      <path id="Path_6834" data-name="Path 6834" d="M-309.541,0h2.026q.578,1.238,1.154,2.476.525,1.132,1.054,2.263l.3.635.049.105.247.529.482,1.032q.43.919.856,1.84l.067.145.136.294q.565,1.221,1.138,2.438.421.892.835,1.786.331.713.664,1.426.381.816.76,1.632.525,1.132,1.054,2.263l.3.635.049.105.247.529.482,1.032q.43.919.856,1.84l.067.145.136.294q.565,1.221,1.138,2.438.421.893.836,1.788.32.69.642,1.378.337.721.671,1.442l.067.145.136.294q.565,1.221,1.138,2.437.421.892.836,1.788.273.59.549,1.179l.508,1.089.065.14.421.906.139.3.194.418.06.127c.134.291.134.291.134.417h-7.372c-.838-1.741-.838-1.741-1.1-2.3l-.183-.4-.091-.2q-.226-.489-.453-.978l-.092-.2q-.348-.75-.7-1.5-.313-.669-.623-1.339l-.067-.145-.274-.591q-.492-1.063-.992-2.121-.471-1-.921-2c-.28-.621-.573-1.233-.867-1.849h-16.883c-.566,1.218-.566,1.218-1.13,2.437q-.6,1.289-1.2,2.574-.4.851-.8,1.707-.318.69-.64,1.378-.428.916-.853,1.833-.237.51-.475,1.02l-.051.108-.2.43q-.391.835-.771,1.675l-.072.158-.062.138a.4.4,0,0,1-.107.16c-.146,0-.29.006-.436.005h-.132l-.42,0h-.284l-.7,0a2.275,2.275,0,0,1,.233-.672l.054-.114.116-.244q.124-.259.247-.518l.126-.265q.28-.59.554-1.183l.178-.385.089-.193q.24-.517.482-1.033l.1-.214.485-1.038.189-.4.048-.1q.311-.666.619-1.332l.067-.145.136-.294q.565-1.221,1.138-2.438.421-.892.835-1.786.331-.713.664-1.426.381-.816.76-1.632.525-1.132,1.054-2.263l.3-.635.049-.105.247-.529.482-1.032q.43-.919.856-1.84l.067-.145.136-.294q.565-1.221,1.138-2.438.421-.893.836-1.788.32-.69.642-1.378.337-.721.671-1.442l.067-.145.136-.294q.565-1.221,1.138-2.437.421-.893.836-1.788.343-.741.69-1.481.319-.682.635-1.365l.07-.151.141-.3C-310.315,1.635-309.933.815-309.541,0Zm-1.688,7.991q-.469.929-.911,1.871l-.127.269q-.555,1.179-1.1,2.362l-.524,1.133-.069.149q-.472,1.019-.951,2.035-.507,1.074-1,2.153-.309.67-.619,1.339l-.069.15q-.474,1.022-.954,2.042l-.426.9-.051.109q-.168.358-.336.717l-.084.179-.077.166-.067.143a5.257,5.257,0,0,0-.173.543h15.138c-.426-.948-.426-.948-.863-1.89l-.273-.58-.055-.118q-.257-.547-.511-1.1l-.088-.189-.478-1.032-.338-.731-.069-.149q-.472-1.019-.951-2.035-.507-1.074-1-2.153-.309-.67-.619-1.339l-.069-.15q-.5-1.082-1.01-2.16-.38-.8-.753-1.612l-.083-.179c-.13-.282-.257-.565-.378-.851Z" transform="translate(589.178 -0.128)" fill="#fff"/>
      <path id="Path_6835" data-name="Path 6835" d="M-309.541,0h2.026c.266.532.529,1.061.777,1.6l.14.3.153.332q.317.687.635,1.374l.069.149q.5,1.075,1,2.147.421.893.836,1.788.32.69.642,1.378.337.721.671,1.442l.067.145.136.294q.565,1.221,1.138,2.437.421.892.835,1.786.331.713.664,1.426.381.816.76,1.632.525,1.132,1.054,2.263l.3.635.049.105.247.529.482,1.032q.43.919.856,1.84l.067.145.136.294q.565,1.221,1.138,2.438.421.893.836,1.788.32.69.642,1.378.337.721.671,1.442l.067.145.136.294q.565,1.221,1.138,2.437.42.891.834,1.784.241.52.483,1.039l.054.116.259.553.263.565.073.155.063.136.053.115a.533.533,0,0,1,.036.269h-7.316c-.27-.54-.54-1.08-.8-1.625l-.094-.2c-.268-.56-.529-1.122-.788-1.686q-.269-.585-.542-1.167-.339-.724-.675-1.45l-.067-.145-.273-.591q-.465-1-.937-2-.464-.982-.91-1.971-.307-.679-.624-1.353l-.064-.134-.307-.645-.11-.231-.052-.107c-.116-.244-.116-.244-.116-.37h-16.939l-.169.506c-.064.148-.13.292-.2.437l-.058.121-.122.255q-.131.272-.26.545l-.132.277q-.276.579-.544,1.161l-.086.186-.286.619-.524,1.133-.069.149q-.5,1.079-1.007,2.154-.4.851-.8,1.707-.318.69-.64,1.378-.375.8-.748,1.6l-.137.294-.085.183-.073.158c-.124.269-.246.538-.368.807H-328a6.258,6.258,0,0,1,.3-.738l.055-.115.116-.244q.154-.324.307-.649l.062-.131q.264-.558.521-1.119.356-.775.717-1.548l.05-.107.251-.537.445-.954.246-.527.049-.105.3-.637q.5-1.078,1-2.157.525-1.132,1.054-2.263l.3-.635.049-.105.247-.529.482-1.032q.43-.919.856-1.84l.067-.145.136-.294q.565-1.221,1.138-2.438.421-.893.836-1.788.32-.69.642-1.378.337-.721.671-1.442l.067-.145.136-.294q.565-1.221,1.138-2.437.421-.893.836-1.788.32-.69.642-1.378.337-.721.671-1.442l.067-.145.136-.294q.565-1.221,1.138-2.437.421-.892.835-1.787.229-.495.46-.989Q-310.25,1.574-309.541,0Zm-1.688,7.991q-.853,1.8-1.692,3.6l-.577,1.247-.069.149q-.472,1.019-.951,2.035-.507,1.074-1,2.153-.309.67-.619,1.339l-.069.15q-.474,1.022-.954,2.042-.709,1.5-1.4,3.018l-.065.144a1.024,1.024,0,0,0-.146.387h15.138a6.144,6.144,0,0,0-.282-.709l-.05-.107-.107-.227-.23-.487-.118-.25q-.263-.557-.521-1.116l-.088-.189-.478-1.032-.338-.731-.069-.149q-.472-1.019-.951-2.035-.507-1.074-1-2.153-.309-.67-.619-1.339l-.069-.15q-.474-1.022-.954-2.042-.4-.841-.788-1.685l-.082-.177q-.194-.42-.381-.843l-.071-.16q-.065-.148-.13-.3A.621.621,0,0,0-311.23,7.991Z" transform="translate(448.262 -0.128)" fill="#fff"/>
      <path id="Path_6836" data-name="Path 6836" d="M0,0H26.506V1.8H6.7V17.164H19.865v1.8H6.7V37.874H26.506v1.857H0Z" transform="translate(169.785 -0.128)" fill="#fff"/>
      <path id="Path_6837" data-name="Path 6837" d="M-274.325-38.821l.139.12c.143.127.284.256.424.386l.135.124a9.154,9.154,0,0,1,1.666,2.24l.058.1a9.459,9.459,0,0,1,1.138,4.611c0,.038,0,.077,0,.117a9.721,9.721,0,0,1-2.1,6.088l-.079.1a9.914,9.914,0,0,1-3.636,2.828l-.116.053a9.723,9.723,0,0,1-1.91.622l-.118.028a9.978,9.978,0,0,1-7.223-1.27c-.165-.107-.324-.218-.482-.334l-.178-.129A10.206,10.206,0,0,1-290.608-30a9.878,9.878,0,0,1,1.913-7.147,10.625,10.625,0,0,1,2.946-2.629l.108-.064A9.99,9.99,0,0,1-274.325-38.821Z" transform="translate(335.947 41)" fill="#53c2d4"/>
      <path id="Path_6838" data-name="Path 6838" d="M0,0H6.641V37.874H26.506v1.857H0Z" transform="translate(206.871 -0.128)" fill="#fff"/>
      <path id="Path_6839" data-name="Path 6839" d="M0,0H6.641V39.731H0Z" transform="translate(243.957 -0.128)" fill="#fff"/>
      <path id="Path_6840" data-name="Path 6840" d="M0,0,.143.027A5.991,5.991,0,0,0,.749.082L.871.089l.4.02.289.015.784.04L3,.2l1.55.079L6.146.359l1.372.07.818.042.77.039.281.014c.549.029,1.094.045,1.644.038a1.831,1.831,0,0,1-.577.383l-.122.06A10.47,10.47,0,0,1,8.047,1.8l-.118.028A9.965,9.965,0,0,1,.689.548,3.645,3.645,0,0,1,0,0Z" transform="translate(49.298 17.767)" fill="#10b1d2"/>
    </g>
  </g>
</svg>
