<?xml version="1.0" encoding="UTF-8"?>
<svg version="1.1" xmlns="http://www.w3.org/2000/svg" width="5333" height="706">
<path d="M0 0 C50.6677225 -0.04589214 101.33544288 -0.08107721 152.00318211 -0.10213066 C158.00049384 -0.10463173 163.99780552 -0.10722041 169.99511719 -0.10986328 C171.18895039 -0.1103879 172.3827836 -0.11091252 173.61279356 -0.11145304 C192.88083029 -0.12012859 212.14885495 -0.13588267 231.41688454 -0.15430559 C251.22389567 -0.1730843 271.03090053 -0.18413348 290.83792019 -0.18817699 C303.03564178 -0.19090561 315.23332922 -0.19948732 327.43104029 -0.21583293 C335.82343455 -0.22649849 344.21581146 -0.22957927 352.60821199 -0.22700275 C357.43233439 -0.22573616 362.25639762 -0.22751732 367.08050919 -0.23841095 C395.03408397 -0.29838367 422.92189096 0.20801298 450.6875 3.8125 C451.68446396 3.93847061 451.68446396 3.93847061 452.7015686 4.06698608 C486.84739877 8.38800931 520.17208764 15.65159849 553 26 C554.09876465 26.34256836 555.1975293 26.68513672 556.32958984 27.03808594 C623.38275842 48.08475842 686.20548767 82.78667681 740.28076172 127.58496094 C741.81171112 128.84502665 743.35980647 130.08419469 744.91015625 131.3203125 C751.05495692 136.2252933 756.82000989 141.46011474 762.52368164 146.86499023 C765.60203527 149.78055635 768.70985891 152.63412681 771.921875 155.40234375 C776.3251599 159.22878608 780.45007552 163.30274561 784.5625 167.4375 C785.27857422 168.14970703 785.99464844 168.86191406 786.73242188 169.59570312 C790.78487303 173.65552908 794.65844627 177.8129919 798.40307617 182.15795898 C800.66621538 184.76847501 803.0201279 187.28437154 805.375 189.8125 C810.49005227 195.3566527 815.28627538 201.10979204 820 207 C820.92240375 208.13083957 821.84562196 209.26101515 822.76953125 210.390625 C834.86116383 225.24221687 845.72933885 240.93406143 856.48291016 256.76855469 C858.74955859 260.10250491 861.02896413 263.42760048 863.3125 266.75 C863.74723633 267.38268799 864.18197266 268.01537598 864.62988281 268.66723633 C869.37683792 275.56457228 874.16988561 282.42982789 878.95629883 289.29980469 C883.69521483 296.10790369 888.39230576 302.94311439 893.06591797 309.79614258 C897.34085444 316.05629287 901.6650589 322.28128599 906 328.5 C912.56214736 337.91484669 919.06208679 347.37022921 925.53125 356.84912109 C932.94481881 367.70576026 940.43628637 378.50701572 947.9519043 389.29321289 C952.7312183 396.15884758 957.46569574 403.05358887 962.17797852 409.96533203 C968.37092726 419.03333615 974.68423553 428.01729357 981 437 C986.37399697 432.26253471 989.92976331 426.34338359 993.8125 420.375 C998.43244363 413.3102441 1003.13440749 406.35646346 1008.13549805 399.55517578 C1010.8432145 395.84443068 1013.42416514 392.0529058 1016 388.25 C1020.95605453 380.96895552 1025.96189503 373.72449789 1031 366.5 C1035.8650139 359.52126924 1040.70688196 352.52831274 1045.5 345.5 C1050.29311942 338.47168523 1055.13517405 331.47886329 1060 324.5 C1066.56214736 315.08515331 1073.06208679 305.62977079 1079.53125 296.15087891 C1086.99207251 285.22504008 1094.52698887 274.35160947 1102.0925293 263.49804688 C1105.52696793 258.56805113 1108.94441511 253.62808053 1112.32373047 248.66015625 C1122.42373624 233.83418156 1133.14094582 219.53312124 1144.58496094 205.71923828 C1145.84502665 204.18828888 1147.08419469 202.64019353 1148.3203125 201.08984375 C1154.26886615 193.6376889 1160.75291133 186.74660921 1167.29394531 179.81933594 C1169.34913739 177.62768005 1171.37287956 175.40906513 1173.3918457 173.18408203 C1180.45414328 165.40197091 1187.68965693 157.86633862 1195.68359375 151.03515625 C1198.16851598 148.85194465 1200.5785668 146.60110702 1202.98925781 144.33666992 C1209.44984012 138.27143926 1216.04354208 132.49753411 1223 127 C1224.04187955 126.16563035 1225.08353683 125.33098308 1226.125 124.49609375 C1253.78517317 102.43226227 1283.17404255 82.98606217 1314.41992188 66.38037109 C1316.78686857 65.11402773 1319.1374555 63.82250153 1321.484375 62.51953125 C1344.81100951 49.70421707 1369.87744059 39.66710583 1395 31 C1396.81419434 30.37399902 1396.81419434 30.37399902 1398.66503906 29.73535156 C1444.64464392 14.044559 1492.49396398 4.2873438 1541 1 C1542.1733276 0.91641519 1543.3466552 0.83283037 1544.55553818 0.74671268 C1562.11616506 -0.37343395 1579.72040729 -0.13565754 1597.3075943 -0.11606562 C1602.22617077 -0.11170499 1607.14474611 -0.11321149 1612.06332397 -0.1139679 C1620.56333992 -0.11448961 1629.06334812 -0.11137988 1637.56336212 -0.10573006 C1649.85261673 -0.09756695 1662.14186763 -0.09499493 1674.43112466 -0.09374207 C1694.37465814 -0.09155907 1714.3181875 -0.08491947 1734.26171875 -0.07543945 C1753.62304667 -0.06624582 1772.98437346 -0.05917455 1792.34570312 -0.05493164 C1793.54122088 -0.05466892 1794.73673863 -0.05440619 1795.96848419 -0.05413551 C1801.96666814 -0.05283037 1807.9648521 -0.05156669 1813.96303606 -0.05032361 C1863.64202688 -0.03997444 1913.32101324 -0.02237669 1963 0 C1961.78316727 3.12216367 1960.60526412 5.82267902 1958.63671875 8.5390625 C1958.16911133 9.19148926 1957.70150391 9.84391602 1957.21972656 10.51611328 C1956.46127441 11.56001221 1956.46127441 11.56001221 1955.6875 12.625 C1954.5912093 14.15536346 1953.49620118 15.68664636 1952.40234375 17.21875 C1951.83757324 18.00894531 1951.27280273 18.79914063 1950.69091797 19.61328125 C1947.99563132 23.41765928 1945.37237911 27.27016374 1942.75 31.125 C1937.87515244 38.2795057 1932.95142999 45.39828865 1928 52.5 C1921.43775704 61.91477944 1914.93791255 71.37023018 1908.46875 80.84912109 C1901.73812728 90.70563476 1894.94763418 100.51947275 1888.125 110.3125 C1881.52233814 119.79058995 1874.98022019 129.30823923 1868.46875 138.84912109 C1861.05610363 149.70440941 1853.56708933 160.50542645 1846.05029297 171.28881836 C1842.30871536 176.66196479 1838.59146342 182.05007989 1834.90966797 187.46435547 C1824.65871795 202.53522634 1814.09765024 217.21264016 1802.453125 231.24267578 C1800.36384079 233.76933367 1798.31028732 236.32467907 1796.25 238.875 C1792.66126389 243.25904209 1788.92664196 247.48604434 1785.109375 251.671875 C1783.24324433 253.73153033 1781.42930212 255.82388895 1779.625 257.9375 C1775.02591581 263.22429772 1769.98474137 268.08142776 1765 273 C1762.01375365 275.97617469 1759.0419089 278.96628745 1756.07421875 281.9609375 C1754.6120367 283.43234884 1753.1497957 284.9037016 1751.6875 286.375 C1750.6056543 287.46941406 1750.6056543 287.46941406 1749.50195312 288.5859375 C1744.83634017 293.27247249 1740.03240343 297.71110256 1735 302 C1734.46560303 302.46132324 1733.93120605 302.92264648 1733.38061523 303.39794922 C1708.11200526 325.18952672 1680.88062872 345.1994463 1651.95703125 361.86767578 C1649.76497298 363.13598494 1647.58616276 364.42577793 1645.40625 365.71484375 C1575.14223264 406.93658399 1496.72827312 430.23579669 1341.61366798 441.12846755 C1337.62870588 441.12588607 1333.64374738 441.12920812 1329.65878582 441.13171089 C1322.70318927 441.13529189 1315.74760052 441.13523214 1308.79200363 441.13266373 C1298.44814152 441.1288547 1288.10428589 441.13082865 1277.76042381 441.13387203 C1259.27786511 441.13911824 1240.79530987 441.1386892 1222.31275085 441.13579312 C1206.13772993 441.13327125 1189.96271028 441.1326238 1173.78768921 441.13381577 C1172.71211306 441.13389215 1171.63653691 441.13396854 1170.52836754 441.13404724 C1166.16155763 441.13435861 1161.79474772 441.13467701 1157.42793782 441.135007 C1116.5169294 441.13806164 1075.60592318 441.13529946 1034.6949151 441.1299101 C998.39849691 441.12516498 962.10208222 441.12558963 925.80566406 441.13037109 C884.96644061 441.1357331 844.1272191 441.13784495 803.28799534 441.13475883 C798.92943382 441.13443814 794.57087231 441.1341253 790.21231079 441.13381577 C789.13922935 441.13373669 788.0661479 441.13365761 786.96054884 441.13357614 C770.80112179 441.1324417 754.64169614 441.13376325 738.48226929 441.13629532 C720.0965926 441.13916197 701.71091991 441.13842404 683.32524371 441.13301457 C673.05280251 441.13009138 662.78036996 441.12986757 652.50792899 441.13366075 C645.62710242 441.13591997 638.74628272 441.1344775 631.86545715 441.13015598 C627.95805964 441.12780085 624.05067921 441.1269135 620.14328229 441.13056196 C596.38954289 441.15109282 572.60340115 441.0021788 548.9375 438.75 C548.26609985 438.68686615 547.59469971 438.6237323 546.9029541 438.5586853 C507.08706728 434.77286901 468.16084811 426.98145231 430 415 C428.83823242 414.63793457 427.67646484 414.27586914 426.47949219 413.90283203 C374.50242986 397.56361704 324.77302705 373.02083165 280 342 C279.39188477 341.57944336 278.78376953 341.15888672 278.15722656 340.72558594 C264.32418923 331.11021657 250.89086956 320.8438216 238 310 C237.46842285 309.55333984 236.9368457 309.10667969 236.38916016 308.64648438 C234.63038132 307.16487986 232.87681524 305.67732988 231.125 304.1875 C230.60848877 303.75042725 230.09197754 303.31335449 229.55981445 302.86303711 C218.57382586 293.45525647 208.21875143 283.38363502 198.01367188 273.14404297 C196.10921495 271.23417006 194.19939181 269.32977851 192.2890625 267.42578125 C186.3133515 261.45361076 180.43980212 255.47165105 175 249 C174.05148355 247.91621126 173.10100268 246.8341382 172.1484375 245.75390625 C164.34679661 236.80971324 157.10331141 227.50463328 150 218 C149.42991211 217.24025879 148.85982422 216.48051758 148.27246094 215.69775391 C140.05522921 204.72997476 132.17938992 193.56571842 124.50097656 182.21533203 C122.24380921 178.8839175 119.96764121 175.56571775 117.6875 172.25 C117.25268311 171.61723145 116.81786621 170.98446289 116.36987305 170.33251953 C112.31116966 164.43488619 108.21747274 158.56172629 104.125 152.6875 C97.52233814 143.20941005 90.98022019 133.69176077 84.46875 124.15087891 C77.05369033 113.29205649 69.56034677 102.48889626 62.04370117 91.70019531 C57.30478517 84.89209631 52.60769424 78.05688561 47.93408203 71.20385742 C43.65914556 64.94370713 39.3349411 58.71871401 35 52.5 C28.45713749 43.11282168 21.97598385 33.68544136 15.52587891 24.234375 C12.98046055 20.507068 10.42905019 16.78389608 7.875 13.0625 C7.20053833 12.07745483 7.20053833 12.07745483 6.51245117 11.07250977 C4.79040432 8.5647356 3.06537851 6.08391657 1.1953125 3.68359375 C0 2 0 2 0 0 Z " fill="#03AAD1" transform="translate(0,265)"/>
<path d="M0 0 C4.91857647 0.00436063 9.83715182 0.00285413 14.75572968 0.00209773 C23.25574562 0.00157602 31.75575382 0.00468574 40.25576782 0.01033556 C52.54502243 0.01849867 64.83427333 0.02107069 77.12353036 0.02232356 C97.06706384 0.02450655 117.0105932 0.03114616 136.95412445 0.04062617 C156.31545237 0.04981981 175.67677916 0.05689107 195.03810883 0.06113398 C196.23362658 0.0613967 197.42914433 0.06165943 198.66088989 0.06193011 C204.65907384 0.06323525 210.6572578 0.06449893 216.65544176 0.06574202 C266.33443258 0.07609118 316.01341894 0.09368893 365.6924057 0.11606562 C364.47557297 3.23822929 363.29766982 5.93874465 361.32912445 8.65512812 C360.86151703 9.30755488 360.39390961 9.95998164 359.91213226 10.6321789 C359.15368011 11.67607783 359.15368011 11.67607783 358.3799057 12.74106562 C357.283615 14.27142908 356.18860688 15.80271198 355.09474945 17.33481562 C354.52997894 18.12501093 353.96520844 18.91520625 353.38332367 19.72934687 C350.68803703 23.5337249 348.06478481 27.38622936 345.4424057 31.24106562 C340.56755814 38.39557132 335.64383569 45.51435427 330.6924057 52.61606562 C324.13016274 62.03084506 317.63031825 71.4862958 311.1611557 80.96518672 C304.43053298 90.82170038 297.64003988 100.63553837 290.8174057 110.42856562 C284.21474384 119.90665557 277.67262589 129.42430485 271.1611557 138.96518672 C263.74850933 149.82047503 256.25949503 160.62149207 248.74269867 171.40488398 C245.00112106 176.77803042 241.28386912 182.16614551 237.60207367 187.58042109 C227.35112365 202.65129196 216.79005594 217.32870578 205.1455307 231.3587414 C203.05624649 233.88539929 201.00269302 236.44074469 198.9424057 238.99106562 C195.35366959 243.37510772 191.61904766 247.60210996 187.8017807 251.78794062 C185.93565003 253.84759596 184.12170782 255.93995457 182.3174057 258.05356562 C177.71832151 263.34036334 172.67714707 268.19749338 167.6924057 273.11606562 C164.6474288 276.15068546 161.61746132 279.19988048 158.5908432 282.25278437 C157.08308647 283.76976689 155.57527264 285.28669265 154.0674057 286.80356562 C153.3042807 287.57506953 152.5411557 288.34657343 151.7549057 289.14145625 C150.65275726 290.24843867 150.65275726 290.24843867 149.5283432 291.37778437 C148.53133392 292.38264887 148.53133392 292.38264887 147.51418304 293.40781367 C145.09377948 295.67738801 143.484518 297.06832484 140.10851694 297.27179715 C139.0772557 297.22764209 138.04599447 297.18348703 136.9834829 297.13799393 C135.8210937 297.09313769 134.65870451 297.04828145 133.4610914 297.00206593 C132.20485707 296.94255043 130.94862275 296.88303494 129.65432072 296.82171595 C128.35034937 296.76785057 127.04637803 296.71398519 125.7028924 296.65848753 C121.69867973 296.49191296 117.69563157 296.30487967 113.6924057 296.11606562 C111.9944287 296.03876442 111.9944287 296.03876442 110.26214914 295.95990157 C102.60717088 295.6103475 94.95446591 295.22155729 87.30176544 294.82566035 C84.78821851 294.69743861 82.27466087 294.56942672 79.76109368 294.44160283 C74.35883157 294.16639678 68.95664756 293.88972989 63.5545311 293.61168063 C55.52192621 293.19824209 47.48917889 292.7876209 39.45640462 292.37748824 C24.27639654 291.60233151 9.09655636 290.82392201 -6.0832305 290.04444695 C-17.79585184 289.44302478 -29.50851679 288.84245881 -41.22121239 288.24248469 C-42.90932765 288.15600834 -44.59744289 288.06953159 -46.28555812 287.98305443 C-48.8297575 287.85272301 -51.37395688 287.72239161 -53.91815634 287.59206175 C-77.524714 286.38276137 -101.13121996 285.17245597 -124.73761845 283.96005213 C-126.06876684 283.89168598 -126.06876684 283.89168598 -127.42680712 283.8219387 C-131.92387743 283.59097175 -136.42094726 283.35999554 -140.91801692 283.12901598 C-141.81103983 283.08314839 -142.70406274 283.0372808 -143.62414696 282.99002328 C-145.43003898 282.89726861 -147.23593098 282.80451344 -149.04182295 282.71175776 C-177.20845771 281.26506498 -205.37526674 279.82180838 -233.54221344 278.38120234 C-265.23322406 276.76035199 -296.92409789 275.13686203 -328.61477512 273.50950539 C-331.98963977 273.33621087 -335.36450491 273.1629257 -338.73937035 272.98964655 C-339.98572738 272.92565094 -339.98572738 272.92565094 -341.25726334 272.86036249 C-353.80899653 272.21593494 -366.36083525 271.57359082 -378.91272926 270.93230402 C-393.16398603 270.2041935 -407.41509929 269.4733452 -421.66602541 268.73879027 C-429.64363623 268.32767246 -437.62135308 267.91876153 -445.59923717 267.51298042 C-451.54395515 267.21036872 -457.48845631 266.90364752 -463.43287861 266.59527904 C-465.84585854 266.47075546 -468.25890892 266.34758856 -470.67203195 266.2258696 C-473.93606035 266.0610348 -477.19980291 265.89138375 -480.46351719 265.72045863 C-481.88885771 265.65022586 -481.88885771 265.65022586 -483.34299299 265.57857424 C-484.21033562 265.53214724 -485.07767826 265.48572024 -485.971304 265.43788636 C-486.71789 265.39958288 -487.464476 265.36127941 -488.23368583 265.32181522 C-490.33844626 265.11300484 -492.27199184 264.68105567 -494.3075943 264.11606562 C-493.05205749 260.7192975 -491.62668334 257.87812211 -489.5419693 254.92075312 C-488.98888092 254.13216914 -488.43579254 253.34358515 -487.86594391 252.53110468 C-487.26918854 251.69289179 -486.67243317 250.8546789 -486.0575943 249.99106562 C-485.43570221 249.11160273 -484.81381012 248.23213984 -484.17307281 247.32602656 C-474.10868926 233.14341634 -463.81908915 219.2296537 -452.72263336 205.8353039 C-451.46256765 204.3043545 -450.22339961 202.75625915 -448.9872818 201.20590937 C-443.03872815 193.75375452 -436.55468297 186.86267484 -430.01364899 179.93540156 C-427.95845691 177.74374567 -425.93471474 175.52513075 -423.9157486 173.30014765 C-416.85345102 165.51803653 -409.61793737 157.98240424 -401.62400055 151.15122187 C-399.13907832 148.96801027 -396.7290275 146.71717264 -394.31833649 144.45273554 C-387.85775418 138.38750488 -381.26405222 132.61359973 -374.3075943 127.11606562 C-373.26571475 126.28169597 -372.22405747 125.4470487 -371.1825943 124.61215937 C-343.52242113 102.54832789 -314.13355175 83.10212779 -282.88767242 66.49643672 C-280.52072573 65.23009336 -278.1701388 63.93856715 -275.8232193 62.63559687 C-252.49658479 49.82028269 -227.43015371 39.78317145 -202.3075943 31.11606562 C-200.49339996 30.49006464 -200.49339996 30.49006464 -198.64255524 29.85141718 C-152.66295038 14.16062462 -104.81363032 4.40340942 -56.3075943 1.11606562 C-54.5476029 0.9906884 -54.5476029 0.9906884 -52.75205612 0.86277831 C-35.19142924 -0.25736833 -17.58718701 -0.01959192 0 0 Z " fill="#51C1D4" transform="translate(1597.3075942993164,264.88393437862396)"/>
<path d="M0 0 C50.6677225 -0.04589214 101.33544288 -0.08107721 152.00318211 -0.10213066 C158.00049384 -0.10463173 163.99780552 -0.10722041 169.99511719 -0.10986328 C171.18895039 -0.1103879 172.3827836 -0.11091252 173.61279356 -0.11145304 C192.88083029 -0.12012859 212.14885495 -0.13588267 231.41688454 -0.15430559 C251.22389567 -0.1730843 271.03090053 -0.18413348 290.83792019 -0.18817699 C303.03564178 -0.19090561 315.23332922 -0.19948732 327.43104029 -0.21583293 C335.82343455 -0.22649849 344.21581146 -0.22957927 352.60821199 -0.22700275 C357.43233439 -0.22573616 362.25639762 -0.22751732 367.08050919 -0.23841095 C395.03408397 -0.29838367 422.92189096 0.20801298 450.6875 3.8125 C451.68446396 3.93847061 451.68446396 3.93847061 452.7015686 4.06698608 C486.84739877 8.38800931 520.17208764 15.65159849 553 26 C554.09876465 26.34256836 555.1975293 26.68513672 556.32958984 27.03808594 C623.38275842 48.08475842 686.20548767 82.78667681 740.28076172 127.58496094 C741.81171112 128.84502665 743.35980647 130.08419469 744.91015625 131.3203125 C751.05495692 136.2252933 756.82000989 141.46011474 762.52368164 146.86499023 C765.60203527 149.78055635 768.70985891 152.63412681 771.921875 155.40234375 C776.3251599 159.22878608 780.45007552 163.30274561 784.5625 167.4375 C785.27857422 168.14970703 785.99464844 168.86191406 786.73242188 169.59570312 C790.78487303 173.65552908 794.65844627 177.8129919 798.40307617 182.15795898 C800.66621538 184.76847501 803.0201279 187.28437154 805.375 189.8125 C810.49005227 195.3566527 815.28627538 201.10979204 820 207 C820.92240375 208.13083957 821.84562196 209.26101515 822.76953125 210.390625 C834.29363737 224.54515042 844.72002442 239.45065629 854.96484375 254.546875 C856.89291559 257.38618814 858.83986059 260.20984295 860.81640625 263.015625 C861.24147461 263.62043701 861.66654297 264.22524902 862.10449219 264.84838867 C863.22913847 266.44421355 864.35852238 268.03669671 865.48828125 269.62890625 C867 272 867 272 867 274 C832.90630556 272.55324493 798.82643761 270.85787435 764.74722353 269.10763014 C756.96550094 268.70804079 749.18368537 268.31027454 741.40186898 267.9125168 C726.17299278 267.13405266 710.94420477 266.3538747 695.71545687 265.57290496 C682.40785675 264.89045777 669.10022892 264.2085542 655.79257393 263.52717781 C653.99684573 263.43523118 652.20111753 263.34328449 650.40538933 263.25133776 C647.69858567 263.11274204 644.99178198 262.97414691 642.28497821 262.83555334 C617.19804792 261.55104291 592.11114793 260.26594196 567.02431393 258.97955227 C566.08282525 258.93127513 565.14133658 258.88299799 564.17131795 258.83325791 C556.52889203 258.44136995 548.886467 258.04946458 541.24404204 257.65755807 C511.35605964 256.12490374 481.46798439 254.59407177 451.57983398 253.06469727 C417.90518638 251.34156347 384.23060388 249.61716559 350.55611998 247.89083534 C346.96791542 247.70688911 343.37971067 247.52294669 339.79150581 247.33900642 C338.9081585 247.29372288 338.02481118 247.24843934 337.11469576 247.20178357 C323.79633828 246.51906137 310.47793096 245.83731736 297.15949821 245.15606499 C282.03644737 244.38250145 266.9134665 243.60758572 251.79057711 242.83087187 C243.33459612 242.39661073 234.87856265 241.96340488 226.42244935 241.53172775 C220.77209988 241.24317538 215.12182344 240.95322177 209.47160381 240.66213832 C206.25510417 240.49647221 203.03856689 240.33161329 199.82196032 240.16803484 C196.35070022 239.99140922 192.87957002 239.81241228 189.40846157 239.63283443 C188.41965041 239.58308974 187.43083924 239.53334505 186.41206411 239.48209295 C183.60700586 239.33553478 180.8036386 239.1714843 178 239 C176.92235677 238.93996774 175.84471355 238.87993549 174.73441447 238.81808407 C173.66040563 238.74695376 172.5863968 238.67582346 171.47984225 238.60253769 C170.50483748 238.54181096 169.52983272 238.48108423 168.52528236 238.4185173 C164.50969108 237.75300977 162.98836974 235.827245 160.625 232.625 C160.18696045 232.05120605 159.7489209 231.47741211 159.29760742 230.88623047 C158.34176183 229.62252509 157.40276806 228.34593669 156.47900391 227.05859375 C154.94084733 224.91766667 153.35693544 222.81744665 151.76171875 220.71875 C139.60827159 204.61051298 128.30109084 187.86943472 116.93334961 171.203125 C112.65903022 164.94296378 108.3347462 158.71843441 104 152.5 C97.43785264 143.08515331 90.93791321 133.62977079 84.46875 124.15087891 C77.05369033 113.29205649 69.56034677 102.48889626 62.04370117 91.70019531 C57.30478517 84.89209631 52.60769424 78.05688561 47.93408203 71.20385742 C43.65914556 64.94370713 39.3349411 58.71871401 35 52.5 C28.45713749 43.11282168 21.97598385 33.68544136 15.52587891 24.234375 C12.98046055 20.507068 10.42905019 16.78389608 7.875 13.0625 C7.20053833 12.07745483 7.20053833 12.07745483 6.51245117 11.07250977 C4.79040432 8.5647356 3.06537851 6.08391657 1.1953125 3.68359375 C0 2 0 2 0 0 Z " fill="#51BFD4" transform="translate(0,265)"/>
<path d="M0 0 C11.88 0 23.76 0 36 0 C42.84628419 14.66072978 49.69110484 29.32187709 56.5 44 C62.72388578 57.41563693 68.97611735 70.81792131 75.23388672 84.21777344 C76.99117103 87.98083466 78.74766376 91.74426496 80.50390625 95.5078125 C80.79218292 96.12557053 81.08045959 96.74332855 81.37747192 97.37980652 C82.83864084 100.51106145 84.29971814 103.64235911 85.76074219 106.77368164 C88.61354536 112.88767229 91.46749419 119.00112139 94.32421875 125.11328125 C99.41299316 136.00441807 104.4940689 146.89890278 109.54296875 157.80859375 C110.13263176 159.08272629 110.13263176 159.08272629 110.73420715 160.38259888 C111.54069749 162.12534245 112.34718037 163.86808947 113.15365601 165.61083984 C119.84554673 180.07111595 126.57367465 194.5130361 133.37097168 208.92407227 C138.3537007 219.4882709 143.29761053 230.06938476 148.20849609 240.66723633 C152.12460293 249.1182602 156.05815051 257.56096582 160 266 C164.51215857 275.66104978 169.01293483 285.32726016 173.5 295 C179.72389358 308.41563332 185.97611734 321.81792129 192.23388672 335.21777344 C193.99117103 338.98083466 195.74766376 342.74426496 197.50390625 346.5078125 C197.93632126 347.43444954 197.93632126 347.43444954 198.37747192 348.37980652 C199.83864084 351.51106145 201.29971814 354.64235911 202.76074219 357.77368164 C205.61354536 363.88767229 208.46749419 370.00112139 211.32421875 376.11328125 C216.41299316 387.00441807 221.4940689 397.89890278 226.54296875 408.80859375 C226.93607742 409.65801544 227.3291861 410.50743713 227.73420715 411.38259888 C228.54069749 413.12534245 229.34718037 414.86808947 230.15365601 416.61083984 C236.84554673 431.07111595 243.57367465 445.5130361 250.37097168 459.92407227 C255.35817436 470.49775577 260.30651849 481.08837186 265.22167969 491.69580078 C269.00788327 499.86670236 272.81227177 508.02894699 276.625 516.1875 C280.61397028 524.72354474 284.58977128 533.2655366 288.546875 541.81640625 C288.93973694 542.66533447 289.33259888 543.5142627 289.73736572 544.38891602 C290.54314339 546.13022318 291.34890907 547.87153589 292.15466309 549.612854 C298.84589982 564.07260522 305.57399556 578.51371647 312.37097168 592.92407227 C317.35747559 603.49627429 322.30541778 614.08527316 327.21948242 624.69140625 C330.45921486 631.68353426 333.71147639 638.66960868 336.97558594 645.65039062 C339.98998562 652.09734277 342.9956616 658.54835443 346 665 C346.38122009 665.81829285 346.76244019 666.63658569 347.1552124 667.47967529 C349.65468711 672.84593281 352.14938994 678.21437384 354.63882446 683.58529663 C355.46054861 685.35660745 356.28360037 687.127303 357.10800171 688.89736938 C358.26050243 691.37263425 359.40817744 693.85008086 360.5546875 696.328125 C360.90395798 697.07561508 361.25322845 697.82310516 361.61308289 698.59324646 C364 703.77178422 364 703.77178422 364 706 C320.77 706 277.54 706 233 706 C218.10163874 675.05724968 218.10163874 675.05724968 213.5 665.0625 C212.41540821 662.71742774 211.33077147 660.37237627 210.24609375 658.02734375 C209.70968262 656.8657373 209.17327148 655.70413086 208.62060547 654.50732422 C205.94180894 648.70985648 203.25213923 642.91744348 200.5625 637.125 C200.02447754 635.96581055 199.48645508 634.80662109 198.93212891 633.61230469 C194.80689917 624.72776164 190.66415943 615.85145331 186.51730347 606.97698975 C182.81501936 599.05241954 179.12660849 591.12155875 175.453125 583.18359375 C175.0603537 582.33489212 174.6675824 581.48619049 174.26290894 580.61177063 C172.64237794 577.10985721 171.02191849 573.60791071 169.40167236 570.10586548 C163.57680264 557.51911968 157.69426565 544.96109152 151.76782227 532.42190552 C146.1922968 520.61711344 140.75205143 508.75426108 135.39746094 496.84765625 C130.42058647 485.81458513 125.20830117 474.93743245 120 464 C21 464 -78 464 -180 464 C-190.05303776 485.65145717 -190.05303776 485.65145717 -200.08569336 507.31225586 C-207.15164958 522.58548198 -214.25749555 537.83861235 -221.43807983 553.05828857 C-226.19615401 563.14447335 -230.90528551 573.25159281 -235.56640625 583.38305664 C-239.32962538 591.55979441 -243.12704682 599.72020788 -246.9375 607.875 C-252.00771831 618.72660758 -257.06136554 629.58572305 -262.10083008 640.45166016 C-264.90593032 646.49740614 -267.71690379 652.54032729 -270.5390625 658.578125 C-270.98355492 659.52918877 -270.98355492 659.52918877 -271.43702698 660.49946594 C-272.62679795 663.0450135 -273.81660036 665.59054619 -275.00692749 668.13583374 C-279.63409133 678.03254951 -284.20568215 687.95346052 -288.71337891 697.90527344 C-289.34445557 699.29214355 -289.34445557 699.29214355 -289.98828125 700.70703125 C-290.53802612 701.92096558 -290.53802612 701.92096558 -291.09887695 703.15942383 C-292 705 -292 705 -293 706 C-295.59359322 706.08851529 -298.16039691 706.11525945 -300.75390625 706.09765625 C-301.52935287 706.0962413 -302.3047995 706.09482635 -303.10374451 706.09336853 C-305.59003494 706.08775345 -308.0762366 706.07519846 -310.5625 706.0625 C-312.24413933 706.05748694 -313.92578006 706.0529237 -315.60742188 706.04882812 C-319.73831566 706.03777913 -323.86914276 706.02050445 -328 706 C-327.36048406 701.64933811 -325.75314756 697.98283559 -323.859375 694.05859375 C-323.54110748 693.38737991 -323.22283997 692.71616608 -322.89492798 692.02461243 C-322.20930436 690.58023159 -321.52116019 689.13704505 -320.83074951 687.69494629 C-319.36231916 684.62772061 -317.90595418 681.55481646 -316.44869995 678.48226929 C-315.70482064 676.91427378 -314.96028979 675.3465872 -314.21511841 673.77920532 C-310.89270417 666.78889708 -307.62505228 659.77427379 -304.375 652.75 C-303.31918057 650.47127532 -302.26319046 648.19262971 -301.20703125 645.9140625 C-300.68318848 644.78387695 -300.1593457 643.65369141 -299.61962891 642.48925781 C-296.77626328 636.36363504 -293.91952411 630.24426137 -291.0625 624.125 C-290.47143544 622.85880539 -289.88037099 621.59261073 -289.28930664 620.32641602 C-286.41825644 614.17657877 -283.54557545 608.02750559 -280.671875 601.87890625 C-279.55194322 599.48183629 -278.43215324 597.08470008 -277.3125 594.6875 C-277.0312326 594.08532654 -276.74996521 593.48315308 -276.46017456 592.86273193 C-272.77860177 584.97868893 -269.11151816 577.08804197 -265.45703125 569.19140625 C-265.06392258 568.34198456 -264.6708139 567.49256287 -264.26579285 566.61740112 C-263.45930251 564.87465755 -262.65281963 563.13191053 -261.84634399 561.38916016 C-255.15445327 546.92888405 -248.42632535 532.4869639 -241.62902832 518.07592773 C-236.6462993 507.5117291 -231.70238947 496.93061524 -226.79150391 486.33276367 C-222.87539707 477.8817398 -218.94184949 469.43903418 -215 461 C-210.48784143 451.33895022 -205.98706517 441.67273984 -201.5 432 C-195.27610642 418.58436668 -189.02388266 405.18207871 -182.76611328 391.78222656 C-181.00882897 388.01916534 -179.25233624 384.25573504 -177.49609375 380.4921875 C-177.20781708 379.87442947 -176.91954041 379.25667145 -176.62252808 378.62019348 C-175.16135916 375.48893855 -173.70028186 372.35764089 -172.23925781 369.22631836 C-169.38645464 363.11232771 -166.53250581 356.99887861 -163.67578125 350.88671875 C-158.58700684 339.99558193 -153.5059311 329.10109722 -148.45703125 318.19140625 C-148.06392258 317.34198456 -147.6708139 316.49256287 -147.26579285 315.61740112 C-146.45930251 313.87465755 -145.65281963 312.13191053 -144.84634399 310.38916016 C-138.15445327 295.92888405 -131.42632535 281.4869639 -124.62902832 267.07592773 C-119.64182564 256.50224423 -114.69348151 245.91162814 -109.77832031 235.30419922 C-105.99211673 227.13329764 -102.18772823 218.97105301 -98.375 210.8125 C-94.38602972 202.27645526 -90.41022872 193.7344634 -86.453125 185.18359375 C-85.86383209 183.91020142 -85.86383209 183.91020142 -85.26263428 182.61108398 C-84.45685661 180.86977682 -83.65109093 179.12846411 -82.84533691 177.387146 C-76.15410018 162.92739478 -69.42600444 148.48628353 -62.62902832 134.07592773 C-57.64182564 123.50224423 -52.69348151 112.91162814 -47.77832031 102.30419922 C-43.70994548 93.52435163 -39.61955069 84.75493714 -35.52252197 75.98843384 C-31.7471484 67.90818261 -27.98751027 59.82078949 -24.2421875 51.7265625 C-23.8323613 50.84088593 -23.4225351 49.95520935 -23.00028992 49.04269409 C-22.1665159 47.24072652 -21.33275026 45.43875507 -20.49899292 43.63677979 C-13.74942856 29.04985752 -6.95906213 14.48853919 0 0 Z M-30 142 C-35.56226379 153.00750549 -40.94011415 164.08925908 -46.1875 175.25 C-46.93760823 176.84222947 -47.68777199 178.43443278 -48.43798828 180.02661133 C-55.01378557 193.99223366 -61.52076923 207.98932711 -68 222 C-71.10286671 228.70893532 -74.20690462 235.41732733 -77.3125 242.125 C-77.71733612 242.99950806 -78.12217224 243.87401611 -78.53927612 244.77502441 C-84.13027281 256.84902786 -89.76069852 268.90361205 -95.4375 280.9375 C-101.44035635 293.66332957 -107.36727558 306.42195135 -113.25048828 319.20361328 C-116.90643187 327.14061825 -120.57784741 335.0704847 -124.25 343 C-124.65651794 343.8778717 -125.06303589 344.75574341 -125.48187256 345.66021729 C-131.09259999 357.77219764 -136.74395745 369.86424684 -142.4375 381.9375 C-144.96017388 387.29080062 -147.48118733 392.64488152 -150 398 C-150.30137878 398.6405835 -150.60275757 399.28116699 -150.91326904 399.94116211 C-152.9091962 404.18591717 -154.89446299 408.43553556 -156.875 412.6875 C-157.3692749 413.7386499 -157.8635498 414.7897998 -158.37280273 415.87280273 C-158.82469971 416.84677002 -159.27659668 417.8207373 -159.7421875 418.82421875 C-160.1326123 419.66041748 -160.52303711 420.49661621 -160.92529297 421.3581543 C-162.19644607 424.48290389 -163.0732532 427.75638619 -164 431 C-75.23 431 13.54 431 105 431 C97.42719128 414.16282182 97.42719128 414.16282182 89.65612793 397.42141724 C88.03778266 393.98976439 86.42560875 390.55521037 84.8125 387.12109375 C84.48763611 386.42982895 84.16277222 385.73856415 83.82806396 385.02635193 C80.78405922 378.54674162 77.76267566 372.05673529 74.75 365.5625 C73.97765015 363.89791748 73.97765015 363.89791748 73.18969727 362.19970703 C70.3565822 356.09033664 67.52741816 349.97914571 64.7000885 343.86709595 C62.69653003 339.53610207 60.69222071 335.20545602 58.6875 330.875 C58.28284515 330.00085449 57.87819031 329.12670898 57.46127319 328.22607422 C51.87008776 316.15170757 46.23947591 304.09675772 40.5625 292.0625 C34.55964365 279.33667043 28.63272442 266.57804865 22.74951172 253.79638672 C19.09356813 245.85938175 15.42215259 237.9295153 11.75 230 C11.34348206 229.1221283 10.93696411 228.24425659 10.51812744 227.33978271 C4.58251214 214.52646093 -1.40210385 201.73710487 -7.42672729 188.96542358 C-11.92391474 179.43054363 -16.39255653 169.88347979 -20.8125 160.3125 C-21.54134399 158.73577515 -21.54134399 158.73577515 -22.28491211 157.12719727 C-24.59481829 152.11292975 -26.85792117 147.08832679 -29 142 C-29.33 142 -29.66 142 -30 142 Z " fill="#000000" transform="translate(4969,0)"/>
<path d="M0 0 C11.88 0 23.76 0 36 0 C40.72437068 9.44874136 45.40350172 18.84950206 49.8125 28.4375 C50.64188324 30.23161505 51.47127288 32.02572715 52.30082703 33.81976318 C53.20919421 35.78522159 54.11644121 37.75119379 55.0234375 39.71728516 C58.7789429 47.8566647 62.54560439 55.99088718 66.3125 64.125 C66.71685272 64.99835999 67.12120544 65.87171997 67.53781128 66.77154541 C73.4370155 79.5103068 79.38199982 92.22661117 85.37069702 104.92352295 C90.35799424 115.49738838 95.30643233 126.08818593 100.22167969 136.69580078 C104.00788327 144.86670236 107.81227177 153.02894699 111.625 161.1875 C115.61397028 169.72354474 119.58977128 178.2655366 123.546875 186.81640625 C123.93973694 187.66533447 124.33259888 188.5142627 124.73736572 189.38891602 C125.54314339 191.13022318 126.34890907 192.87153589 127.15466309 194.612854 C133.84589982 209.07260522 140.57399556 223.51371647 147.37097168 237.92407227 C152.3537007 248.4882709 157.29761053 259.06938476 162.20849609 269.66723633 C166.12460293 278.1182602 170.05815051 286.56096582 174 295 C178.51215857 304.66104978 183.01293483 314.32726016 187.5 324 C193.72389358 337.41563332 199.97611734 350.81792129 206.23388672 364.21777344 C207.99117103 367.98083466 209.74766376 371.74426496 211.50390625 375.5078125 C211.93632126 376.43444954 211.93632126 376.43444954 212.37747192 377.37980652 C213.83864084 380.51106145 215.29971814 383.64235911 216.76074219 386.77368164 C219.61354536 392.88767229 222.46749419 399.00112139 225.32421875 405.11328125 C230.41299316 416.00441807 235.4940689 426.89890278 240.54296875 437.80859375 C240.93607742 438.65801544 241.3291861 439.50743713 241.73420715 440.38259888 C242.54069749 442.12534245 243.34718037 443.86808947 244.15365601 445.61083984 C250.84554673 460.07111595 257.57367465 474.5130361 264.37097168 488.92407227 C269.35817436 499.49775577 274.30651849 510.08837186 279.22167969 520.69580078 C283.00788327 528.86670236 286.81227177 537.02894699 290.625 545.1875 C294.61397028 553.72354474 298.58977128 562.2655366 302.546875 570.81640625 C302.93973694 571.66533447 303.33259888 572.5142627 303.73736572 573.38891602 C304.54314339 575.13022318 305.34890907 576.87153589 306.15466309 578.612854 C312.84589982 593.07260522 319.57399556 607.51371647 326.37097168 621.92407227 C331.34713069 632.4743414 336.28541891 643.04109318 341.1887207 653.62548828 C344.04221457 659.78469093 346.90308283 665.94031087 349.77734375 672.08984375 C350.09413086 672.7677597 350.41091797 673.44567566 350.73730469 674.14413452 C352.26793247 677.41920186 353.79955355 680.69379993 355.33251953 683.96777344 C356.8945346 687.3090163 358.44911628 690.65357866 360 694 C360.42522949 694.90830566 360.85045898 695.81661133 361.28857422 696.75244141 C361.83989014 697.95199463 361.83989014 697.95199463 362.40234375 699.17578125 C362.87208618 700.18958862 362.87208618 700.18958862 363.35131836 701.22387695 C364 703 364 703 364 706 C321.1 706 278.2 706 234 706 C229.19787474 696.39574947 224.40366094 686.80008615 219.75 677.125 C219.19626709 675.97427002 218.64253418 674.82354004 218.07202148 673.63793945 C213.30373656 663.69513967 208.67143857 653.69285144 204.0703125 643.671875 C200.88918429 636.74644258 197.66592479 629.84097688 194.4375 622.9375 C190.42595569 614.35738247 186.42698988 605.77161596 182.44921875 597.17578125 C182.05669418 596.32757309 181.66416962 595.47936493 181.25975037 594.60545349 C179.64037303 591.10582461 178.02109677 587.60614898 176.40194702 584.10641479 C170.89878923 572.21486649 165.34857118 560.3468932 159.75 548.5 C154.25540702 536.87281547 148.87749925 525.19808081 143.58676147 513.47677612 C139.95571828 505.43447865 136.2752518 497.41901679 132.50390625 489.44140625 C132.13143768 488.65329559 131.75896912 487.86518494 131.37521362 487.05319214 C129.56527396 483.22762775 127.74914883 479.4051191 125.92578125 475.5859375 C125.2746919 474.21486639 124.62364777 472.84377381 123.97265625 471.47265625 C123.67033585 470.84412247 123.36801544 470.21558868 123.05653381 469.56800842 C121 465.22607394 121 465.22607394 121 463 C21.67 463 -77.66 463 -180 463 C-181.485 467.455 -181.485 467.455 -183 472 C-184.14501181 474.62270711 -185.3112104 477.19612511 -186.5546875 479.76953125 C-186.89213989 480.47906952 -187.22959229 481.18860779 -187.57727051 481.91964722 C-188.29802242 483.43378192 -189.02107713 484.94682233 -189.74627686 486.45883179 C-191.29269876 489.68350571 -192.82731521 492.91375272 -194.36270142 496.14369202 C-195.14157219 497.7819324 -195.92101134 499.41990268 -196.70101929 501.05760193 C-199.96636158 507.91562029 -203.18394589 514.79455344 -206.375 521.6875 C-206.88168213 522.7808667 -207.38836426 523.8742334 -207.91040039 525.00073242 C-209.60819009 528.66657434 -211.3042881 532.3331967 -213 536 C-216.10286671 542.70893532 -219.20690462 549.41732733 -222.3125 556.125 C-222.71733612 556.99950806 -223.12217224 557.87401611 -223.53927612 558.77502441 C-229.45874569 571.5583795 -235.42712991 584.31772207 -241.43807983 597.05828857 C-246.19615401 607.14447335 -250.90528551 617.25159281 -255.56640625 627.38305664 C-259.32962583 635.55979541 -263.12716433 643.72015234 -266.9375 651.875 C-271.37484496 661.3734205 -275.80754123 670.87394412 -280.22390747 680.38214111 C-281.03234462 682.12258017 -281.84123675 683.86280788 -282.65014648 685.60302734 C-283.14844971 686.67633301 -283.64675293 687.74963867 -284.16015625 688.85546875 C-284.80416382 690.24221802 -284.80416382 690.24221802 -285.46118164 691.65698242 C-287.6582381 696.42999434 -289.82571458 701.21657207 -292 706 C-303.88 706 -315.76 706 -328 706 C-326.4743827 701.42314811 -324.79559283 697.21442988 -322.7265625 692.890625 C-322.40697571 692.21535767 -322.08738892 691.54009033 -321.75811768 690.84436035 C-321.07291973 689.39730358 -320.38623114 687.95095187 -319.69818115 686.50524902 C-317.86985441 682.6630905 -316.05284032 678.81558298 -314.234375 674.96875 C-313.68757584 673.81315582 -313.68757584 673.81315582 -313.12973022 672.63421631 C-310.00455321 666.02445856 -306.9285258 659.39319879 -303.875 652.75 C-299.65202424 643.57061443 -295.40101219 634.40476875 -291.125 625.25 C-290.8325238 624.62379761 -290.54004761 623.99759521 -290.2387085 623.35241699 C-288.75354406 620.17294166 -287.26797422 616.99365595 -285.78222656 613.81445312 C-283.14344836 608.16750384 -280.50819813 602.51890823 -277.87271118 596.87042236 C-276.41653889 593.7495076 -274.96024449 590.62864983 -273.50390625 587.5078125 C-273.21535263 586.88945526 -272.92679901 586.27109802 -272.62950134 585.63400269 C-270.86998442 581.86363996 -269.10988059 578.0935518 -267.34933472 574.32366943 C-261.38643833 561.55517496 -255.43069229 548.78349647 -249.5 536 C-243.27605027 522.58439259 -237.02388275 509.18207889 -230.76611328 495.78222656 C-229.00882897 492.01916534 -227.25233624 488.25573504 -225.49609375 484.4921875 C-225.20781708 483.87442947 -224.91954041 483.25667145 -224.62252808 482.62019348 C-223.16135916 479.48893855 -221.70028186 476.35764089 -220.23925781 473.22631836 C-217.38645464 467.11232771 -214.53250581 460.99887861 -211.67578125 454.88671875 C-206.58700684 443.99558193 -201.5059311 433.10109722 -196.45703125 422.19140625 C-196.06392258 421.34198456 -195.6708139 420.49256287 -195.26579285 419.61740112 C-194.45930251 417.87465755 -193.65281963 416.13191053 -192.84634399 414.38916016 C-186.15445327 399.92888405 -179.42632535 385.4869639 -172.62902832 371.07592773 C-167.64182564 360.50224423 -162.69348151 349.91162814 -157.77832031 339.30419922 C-153.99211673 331.13329764 -150.18772823 322.97105301 -146.375 314.8125 C-142.38602972 306.27645526 -138.41022872 297.7344634 -134.453125 289.18359375 C-134.06026306 288.33466553 -133.66740112 287.4857373 -133.26263428 286.61108398 C-132.45685661 284.86977682 -131.65109093 283.12846411 -130.84533691 281.387146 C-124.15410018 266.92739478 -117.42600444 252.48628353 -110.62902832 238.07592773 C-105.64182564 227.50224423 -100.69348151 216.91162814 -95.77832031 206.30419922 C-91.99211673 198.13329764 -88.18772823 189.97105301 -84.375 181.8125 C-80.38602972 173.27645526 -76.41022872 164.7344634 -72.453125 156.18359375 C-71.86383209 154.91020142 -71.86383209 154.91020142 -71.26263428 153.61108398 C-70.45685661 151.86977682 -69.65109093 150.12846411 -68.84533691 148.387146 C-62.15410018 133.92739478 -55.42600444 119.48628353 -48.62902832 105.07592773 C-43.64462078 94.50817037 -38.69787853 83.92402526 -33.78710938 73.32177734 C-31.07207629 67.46068712 -28.34992067 61.60311318 -25.609375 55.75390625 C-16.93358077 37.23083807 -8.4401904 18.63211842 0 0 Z M-30 142 C-40.1100948 163.28189463 -50.17741209 184.58051774 -60.06115723 205.96868896 C-63.47524686 213.35552533 -66.89333712 220.74051081 -70.3125 228.125 C-70.71742676 228.99968933 -71.12235352 229.87437866 -71.53955078 230.77557373 C-77.13045309 242.84939558 -82.76078574 254.90379694 -88.4375 266.9375 C-94.44035635 279.66332957 -100.36727558 292.42195135 -106.25048828 305.20361328 C-109.90643187 313.14061825 -113.57784741 321.0704847 -117.25 329 C-117.65651794 329.8778717 -118.06303589 330.75574341 -118.48187256 331.66021729 C-124.09259542 343.77218778 -129.74284845 355.8647762 -135.4375 367.9375 C-143.83991706 385.75228336 -152.1374531 403.61346974 -160.25 421.5625 C-160.63341553 422.4086084 -161.01683105 423.2547168 -161.41186523 424.12646484 C-163.19501132 427.44585973 -163.19501132 427.44585973 -164 431 C-75.23 431 13.54 431 105 431 C103.51406025 426.54218074 101.97451671 422.61226337 99.98046875 418.3984375 C99.53889183 417.46121101 99.53889183 417.46121101 99.08839417 416.50505066 C98.45512544 415.16186704 97.82034978 413.81939304 97.1842041 412.47756958 C95.81840647 409.59638894 94.46024598 406.71162886 93.10153198 403.82710266 C92.40425809 402.34701513 91.70660372 400.86710678 91.00857544 399.38737488 C87.89728694 392.79069386 84.81745991 386.17967512 81.75 379.5625 C81.23566406 378.45390625 80.72132813 377.3453125 80.19140625 376.203125 C77.35757759 370.09268194 74.52795274 363.98030135 71.7000885 357.86709595 C69.69653003 353.53610207 67.69222071 349.20545602 65.6875 344.875 C65.28284515 344.00085449 64.87819031 343.12670898 64.46127319 342.22607422 C58.87008776 330.15170757 53.23947591 318.09675772 47.5625 306.0625 C41.55964365 293.33667043 35.63272442 280.57804865 29.74951172 267.79638672 C26.09356813 259.85938175 22.42215259 251.9295153 18.75 244 C18.34348206 243.1221283 17.93696411 242.24425659 17.51812744 241.33978271 C11.90740458 229.22781222 6.25715155 217.1352238 0.5625 205.0625 C-4.1371263 195.09836421 -8.81865114 185.12693023 -13.4375 175.125 C-13.91807861 174.0848877 -14.39865723 173.04477539 -14.89379883 171.97314453 C-17.18712315 166.99333183 -19.45097576 162.00257603 -21.66796875 156.98828125 C-22.0844165 156.04903809 -22.50086426 155.10979492 -22.92993164 154.14208984 C-23.70474647 152.38858653 -24.47382861 150.63253449 -25.23608398 148.87353516 C-26.77956953 144.72124217 -26.77956953 144.72124217 -30 142 Z " fill="#000000" transform="translate(2465,0)"/>
<path d="M0 0 C155.43 0 310.86 0 471 0 C471 10.56 471 21.12 471 32 C354.84 32 238.68 32 119 32 C119 122.09 119 212.18 119 305 C196.22 305 273.44 305 353 305 C353 315.56 353 326.12 353 337 C275.78 337 198.56 337 119 337 C119 447.88 119 558.76 119 673 C235.16 673 351.32 673 471 673 C471 683.89 471 694.78 471 706 C315.57 706 160.14 706 0 706 C0 473.02 0 240.04 0 0 Z " fill="#000000" transform="translate(3017,0)"/>
<path d="M0 0 C1.22396484 1.05960938 1.22396484 1.05960938 2.47265625 2.140625 C5.0178422 4.39077393 7.51544497 6.68316219 10 9 C10.79019531 9.72445312 11.58039063 10.44890625 12.39453125 11.1953125 C24.43594495 22.67258889 34.01064354 36.47041219 42 51 C42.33837891 51.60038086 42.67675781 52.20076172 43.02539062 52.81933594 C56.98388082 77.81384085 63.22468502 106.30969215 63.25 134.75 C63.25067474 135.43396851 63.25134949 136.11793701 63.25204468 136.82263184 C63.19100058 175.97528603 50.63272766 214.32544516 26 245 C25.30922363 245.86214111 25.30922363 245.86214111 24.60449219 246.74169922 C7.01176086 268.49529027 -14.53028218 285.40245285 -40 297 C-41.01682861 297.46599609 -41.01682861 297.46599609 -42.05419922 297.94140625 C-53.06688939 302.91571847 -64.21667595 306.3680285 -76 309 C-76.6909375 309.16516113 -77.381875 309.33032227 -78.09375 309.50048828 C-120.94236795 319.46073192 -169.35191591 309.55699012 -206.4375 286.94140625 C-209.36623919 285.04611539 -212.19061622 283.0675802 -215 281 C-216.0415625 280.24203125 -217.083125 279.4840625 -218.15625 278.703125 C-258.65068534 248.69536875 -281.77087724 206.06439272 -289.35253906 156.70483398 C-294.97483694 112.57785631 -282.61734739 64.97689185 -255.35644531 29.71484375 C-240.49588362 10.92784135 -223.64887732 -4.79962468 -203 -17 C-202.36787598 -17.37366699 -201.73575195 -17.74733398 -201.08447266 -18.13232422 C-138.70482004 -54.36722276 -54.70618453 -47.40570583 0 0 Z " fill="#53C2D4" transform="translate(1095,41)"/>
<path d="M0 0 C38.94 0 77.88 0 118 0 C118 222.09 118 444.18 118 673 C234.49 673 350.98 673 471 673 C471 683.89 471 694.78 471 706 C315.57 706 160.14 706 0 706 C0 473.02 0 240.04 0 0 Z " fill="#000000" transform="translate(3676,0)"/>
<path d="M0 0 C38.94 0 77.88 0 118 0 C118 232.98 118 465.96 118 706 C79.06 706 40.12 706 0 706 C0 473.02 0 240.04 0 0 Z " fill="#000000" transform="translate(4335,0)"/>
<path d="M0 0 C0.8392527 0.15547271 1.6785054 0.31094542 2.54319 0.47112942 C6.14734862 1.02254343 9.66779315 1.27490209 13.30895996 1.46192932 C14.37989073 1.51833892 14.37989073 1.51833892 15.47245646 1.5758881 C17.85322478 1.7004389 20.23421387 1.82007193 22.61523438 1.93969727 C24.32738705 2.02822756 26.03952456 2.11705142 27.75164795 2.20614624 C32.39655027 2.44692483 37.04166565 2.68332961 41.68684196 2.91875577 C45.57295354 3.1161429 49.45894963 3.31575226 53.34494638 3.51538509 C62.52277822 3.98687159 71.70078119 4.45491299 80.87890625 4.9206543 C90.32088853 5.39983024 99.76260211 5.88404964 109.20419073 6.37091595 C117.32832083 6.7897065 125.45259148 7.20568511 133.57698298 7.61937374 C138.4209626 7.86603125 143.26488849 8.11363694 148.10868835 8.36380196 C152.6721645 8.5993362 157.23580852 8.83131408 161.79959869 9.06068039 C163.46439561 9.14491019 165.12913319 9.23032319 166.79380035 9.31707954 C176.54244383 9.82427586 186.23497854 10.11391508 196 10 C193.0272173 13.17832362 189.61920317 14.91845562 185.75 16.8125 C185.03690674 17.1628833 184.32381348 17.5132666 183.58911133 17.87426758 C170.44223401 24.24512263 157.23147885 28.76744647 143 32 C142.30616211 32.16661133 141.61232422 32.33322266 140.89746094 32.50488281 C97.96050644 42.48013487 49.33083315 32.54492848 12.24609375 9.73046875 C7.72563378 6.79842552 3.72194598 3.91148953 0 0 Z " fill="#10B1D2" transform="translate(876,318)"/>
</svg>
