<svg xmlns="http://www.w3.org/2000/svg" xmlns:xlink="http://www.w3.org/1999/xlink" width="710" height="710" viewBox="0 0 710 710">
  <defs>
    <clipPath id="clip-miarepa">
      <rect width="710" height="710"/>
    </clipPath>
  </defs>
  <g id="miarepa" clip-path="url(#clip-miarepa)">
    <rect id="Rectangle_124" data-name="Rectangle 124" width="710" height="710" rx="355" fill="#ffba00"/>
    <g id="White_logo_-_no_background" data-name="White logo - no background" transform="translate(-359.569 1028.997)">
      <g id="SvgjsG1090" transform="translate(460.785 -922.375)">
        <path id="Path_5" data-name="Path 5" d="M243.687,444.489a144.189,144.189,0,0,1-112.51-53.48c-22.2-27.245-41.876-50.453-58.525-69.625a92.619,92.619,0,0,1-22.2-76.688C54.994,216.947,71.138,192.73,95.86,178.6h0L292.626,64.075c26.74-15.64,59.03-16.649,86.779-4.036a93.553,93.553,0,0,1,52.471,69.12L457.1,282.536a93.129,93.129,0,0,1-48.939,97.879c-25.731,13.622-60.543,30.272-102.924,49.948A140.7,140.7,0,0,1,243.687,444.489ZM105.446,195.757a72.786,72.786,0,0,0-17.659,111.5c8.594,9.605,13.086,14.768,27.844,32.3s20.109,24.234,31.186,37.829c3.742,4.573,12.21,12.951,12.21,12.951s91.021,43.08,137.634,21.357c41.876-19.677,76.184-36.326,101.915-49.948a72.8,72.8,0,0,0,38.344-76.688L411.7,131.682c-1.994-11.963,71.834,150.654,13.362,218.8-33.69,39.263-119.493,79.946-181.37,79.881-47.964-.05-80-29.06-84.824-31.3-.624-.3-23.537-13.941-33.749-47.982s-18.835-63.127,3.47-100.205c45.707-75.979,188.033-171.823,202.3-184.129S166.8,159.665,105.446,195.757Z" fill="#cc9600"/>
      </g>
    </g>
  </g>
</svg>
