<svg xmlns="http://www.w3.org/2000/svg" xmlns:xlink="http://www.w3.org/1999/xlink" width="305" height="100" viewBox="0 0 305 100">
  <defs>
    <clipPath id="clip-Artboard_8">
      <rect width="305" height="100"/>
    </clipPath>
  </defs>
  <g id="Artboard_8" data-name="Artboard – 8" clip-path="url(#clip-Artboard_8)">
    <g id="primal-kitchen-logo" transform="translate(0 -0.365)">
      <path id="Path_6831" data-name="Path 6831" d="M22.232,30.933c-.983,0-2.8,0-2.8,1.564,0,1.1,1.1,1.334,1.442,1.392a10,10,0,0,0,1.7.086c10.8,0,18.63-7.755,18.63-18.422a13.327,13.327,0,0,0-3.86-9.225C36.2,5.258,32.741,1.958,23.322,1.958c-1.729,0-3.687.057-5.588.115-1.75.057-3.479.115-4.921.115-.861,0-2.159-.029-3.659-.086-2.045-.057-4.577-.143-6.794-.143-.725,0-2.36,0-2.36,1.413,0,.638.344,1.42,1.987,1.42a14.069,14.069,0,0,1,2.647.2C6.535,5.4,7.052,6.119,7.2,8.465c.143,2.317.143,4.311.143,15.416V36.722c0,6.679,0,12.432-.344,15.445-.287,2.08-.6,3.149-1.5,3.322a10.421,10.421,0,0,1-2.475.294c-1.671,0-1.93.832-1.93,1.327,0,.552.287,1.478,2.217,1.478,1.671,0,3.859-.093,5.761-.151,1.413-.057,2.676-.086,3.4-.086s1.844.029,3.192.086c2.281.057,5.1.151,8.063.151,1.585,0,2.138-.782,2.138-1.478,0-.316-.151-1.327-1.9-1.327a28.465,28.465,0,0,1-3.6-.294c-1.442-.2-1.958-.954-2.188-3.264-.352-3.1-.352-8.852-.352-15.531V7.539c0-.552.122-.7.122-.7a9.936,9.936,0,0,1,2.532-.23A9.859,9.859,0,0,1,27.21,9.275c3.63,3.235,4.06,7.489,4.06,10.38C31.213,26.657,26,30.933,22.232,30.933Z" fill="#84bd00"/>
      <path id="Path_6832" data-name="Path 6832" d="M100.273,55.812a10.287,10.287,0,0,1-1.9-.208c-1.126-.23-3.917-.782-7.719-4.742-3.745-3.96-8.035-9.4-13.479-16.284l-1.758-2.224c6.514-5.438,9.276-10.409,9.276-16.457a13.323,13.323,0,0,0-5.273-10.61c-4.175-2.869-9.326-3.271-13.8-3.271-1.09,0-2.963.057-4.893.115-2.016.057-4.06.115-5.33.115-.574,0-1.607-.029-2.877-.057-2.073-.057-4.692-.143-7.059-.143-.717,0-2.36,0-2.36,1.42,0,.631.344,1.413,1.987,1.413a14.241,14.241,0,0,1,2.647.2c1.9.409,2.425,1.1,2.568,3.472.144,2.317.144,4.311.144,15.416V36.808c0,6.679,0,12.432-.373,15.445-.323,2.339-.7,3.178-1.5,3.35A10.1,10.1,0,0,1,46.1,55.9c-1.672,0-1.93.839-1.93,1.327,0,.552.287,1.478,2.217,1.478,1.729,0,4.06-.086,5.933-.144,1.291-.065,2.389-.093,2.934-.093.373,0,1.212.029,2.331.065,2.224.057,5.531.172,8.358.172,1.9,0,2.188-.925,2.188-1.478,0-.61-.438-1.327-1.614-1.327a31.824,31.824,0,0,1-3.458-.294c-1.442-.172-1.93-.954-2.188-3.321-.344-3.042-.344-8.824-.344-15.531v-.839l6.1.115c.459,0,.6.057.746.229.581.639,1.987,2.69,3.659,5.065,1.126,1.593,2.331,3.35,3.515,4.943,4.4,6.076,7.052,9.254,10.194,10.962,2.073,1.126,4.032,1.478,8.121,1.478h6.915c1.406,0,2.131-.495,2.131-1.478C101.916,56.529,101.478,55.812,100.273,55.812Zm-25.66-36.3c0,6.42-2.5,9.225-3.974,10.323-1.155.839-1.958,1.1-4.692,1.1a18.081,18.081,0,0,1-5.273-.689.355.355,0,0,1-.086-.057,1.319,1.319,0,0,1-.057-.552V7.453a1.3,1.3,0,0,1,.029-.287A16.941,16.941,0,0,1,64.275,6.9C68.106,6.93,74.613,9.591,74.613,19.513Z" fill="#84bd00"/>
      <path id="Path_6833" data-name="Path 6833" d="M123.108,55.812a29.137,29.137,0,0,1-3.6-.294c-1.521-.2-2.045-.839-2.274-2.92-.287-3.092-.287-8.73-.287-15.876V23.881c0-11.1,0-13.1.143-15.416.144-2.661.782-3.207,2.045-3.443a10.744,10.744,0,0,1,2.044-.2c1.586,0,1.93-.811,1.93-1.478,0-1.327-1.729-1.327-2.3-1.327-1.528,0-3.515.057-5.3.115-1.435.057-2.733.086-3.537.086-.983,0-2.482-.057-4.089-.086-1.872-.057-3.859-.115-5.359-.115-.746,0-2.5,0-2.5,1.327,0,.667.344,1.478,1.929,1.478a9.746,9.746,0,0,1,2.418.258c.918.208,1.758.753,1.93,3.386.143,2.317.143,4.311.143,15.416V36.722c0,7.145,0,12.784-.344,15.818-.23,2.317-.725,2.834-1.5,2.977a11.1,11.1,0,0,1-2.474.294c-1.672,0-1.9.832-1.9,1.327,0,.552.287,1.478,2.217,1.478,1.672,0,3.86-.086,5.761-.151,1.406-.057,2.676-.086,3.393-.086.753,0,1.9.029,3.314.086,2.246.065,5.072.151,8.006.151,1.586,0,2.131-.782,2.131-1.478C125.009,56.823,124.866,55.812,123.108,55.812Z" fill="#84bd00"/>
      <path id="Path_6834" data-name="Path 6834" d="M258.235,55.811a15.305,15.305,0,0,1-2.912-.294c-.947-.23-2.992-.7-5.84-7.489-2.625-6.277-7.575-18.738-11.55-28.774-3.056-7.7-5.7-14.348-6.449-16.112C230.76,1.52,230.157.365,228.973.365c-1.291,0-1.872,1.306-2.733,3.386L208.012,49.563c-1.528,3.845-2.77,5.725-5.589,6.1-.516.057-1.5.151-2.159.151-1.471,0-1.643.925-1.643,1.327,0,1.478,1.614,1.478,2.131,1.478,2.589,0,5.244-.122,7-.179.775-.029,1.32-.057,1.579-.057,1.1,0,2.424.057,3.744.115,1.385.065,2.769.122,3.946.122,1.327,0,1.987-.495,1.987-1.478,0-1.327-1.291-1.327-1.844-1.327h-1.09c-2.131,0-2.131-.954-2.131-1.507a13.419,13.419,0,0,1,1.033-4.168L218.894,39.7c0-.029.029-.057.029-.086h16.1l5.818,15.474c.086.229.115.373.028.488a.272.272,0,0,1-.2.172c-.316.036-1.557.151-1.557,1.392,0,1.184,1.241,1.241,2.568,1.3l.316.029c5.846.151,11.2.151,13.766.151,2.389,0,4.089,0,4.089-1.478C259.935,56.529,259.62,55.811,258.235,55.811ZM233.12,34.433H220.91l6.191-16.6Z" fill="#84bd00"/>
      <path id="Path_6835" data-name="Path 6835" d="M296.937,45.746c-1.348,0-1.492,1.327-1.549,1.765a8.9,8.9,0,0,1-1.7,3.96c-1.557,1.679-4.032,1.793-7.949,1.793-5.588,0-7.26-.524-8.293-1.42-1.27-1.1-1.27-6.679-1.27-15.094V23.909c0-11.076,0-13.1.144-15.416.143-2.661.775-3.207,2.044-3.443a18.511,18.511,0,0,1,2.7-.2c1.384,0,2.073-.488,2.073-1.413,0-1.42-1.693-1.42-2.274-1.42-1.614,0-3.974.057-6.076.115-1.614.057-3.049.086-3.8.086-.832,0-2.16-.029-3.652-.086-2.015-.057-4.354-.143-6.284-.143-.631,0-2.331,0-2.331,1.413,0,.638.344,1.42,1.987,1.42a10.955,10.955,0,0,1,2.216.2c1.9.409,2.425,1.1,2.569,3.472.143,2.317.143,4.311.143,15.416V36.75c0,6.679,0,12.432-.38,15.445-.316,2.339-.689,3.207-1.492,3.35a10.228,10.228,0,0,1-2.446.294c-1.672,0-1.93.839-1.93,1.327,0,.552.287,1.478,2.217,1.478.717,0,1.52-.029,2.36-.057.861-.029,1.786-.093,2.647-.093,1.757-.057,3.371-.057,4.146-.057,2.913,0,5.445.057,8.817.237l2.59.057c2.7.086,5.789.143,9.706.143,3.687,0,4.691-.287,5.294-2.547a57.072,57.072,0,0,0,1.126-8.587C298.264,47.1,298.264,45.746,296.937,45.746Z" fill="#84bd00"/>
      <path id="Path_6836" data-name="Path 6836" d="M199.367,55.868a13.781,13.781,0,0,1-4.147-.667c-1.607-.495-2.274-2.023-2.934-6.564l-6.42-43.789c-.259-1.88-.955-2.862-2.016-2.862-1.184,0-1.7,1.069-2.217,2.109L163.11,43.142,144.537,4.619c-.889-1.793-1.5-2.633-2.589-2.633-.7,0-1.586.43-1.93,2.461l-7,46.242c-.344,2.4-.86,4.656-2.3,4.972a7.815,7.815,0,0,1-1.959.208c-1.643,0-1.872.775-1.872,1.241,0,.581.258,1.535,2.016,1.535,1.269,0,2.912-.057,4.347-.151,1.1-.057,2.044-.086,2.626-.086.487,0,1.291.029,2.245.086,1.5.065,3.364.151,5.151.151.667,0,2.453,0,2.453-1.535,0-.2-.086-1.241-1.815-1.241a12.644,12.644,0,0,1-2.8-.352c-1.348-.316-1.52-.954-1.52-1.528a27.934,27.934,0,0,1,.2-3.243l3.394-26.084c.81,1.736,1.728,3.673,2.6,5.524,1.779,3.816,3.479,7.4,3.859,8.3.832,1.966,6.334,12.662,8.149,16.134l.2.38c1.263,2.367,1.9,3.558,2.934,3.558,1.155,0,1.614-.925,3.286-4.4L178.72,23.795,182.7,52.913a5.145,5.145,0,0,1,.028,2.289,1.645,1.645,0,0,0-1.147,1.442c0,1.306,1.578,1.449,2.733,1.535,2.877.2,12.583.438,14.4.438,2.331,0,2.589-1.076,2.589-1.535C201.239,56.3,200.608,55.868,199.367,55.868Z" fill="#84bd00"/>
      <path id="Path_6837" data-name="Path 6837" d="M303.68,68.129a2.912,2.912,0,0,1,.976.983A2.736,2.736,0,0,1,305,70.475a2.807,2.807,0,0,1-.344,1.356,2.673,2.673,0,0,1-3.688.983,2.91,2.91,0,0,1-.975-.983,2.688,2.688,0,0,1-.345-1.327,2.824,2.824,0,0,1,.345-1.363,2.3,2.3,0,0,1,.975-.983,2.767,2.767,0,0,1,1.356-.373A2.236,2.236,0,0,1,303.68,68.129Zm-.172,4.34a2.477,2.477,0,0,0,.861-.839,2.377,2.377,0,0,0,.315-1.191,2.265,2.265,0,0,0-.315-1.155,2.332,2.332,0,0,0-4.348,1.191,2.266,2.266,0,0,0,.316,1.155,2.3,2.3,0,0,0,2.016,1.155A2.213,2.213,0,0,0,303.508,72.469Zm-.2-1.966a.935.935,0,0,1-.466.316l.667.954H303.1l-.574-.9h-.889v.868h-.345V68.968h1.062a1.431,1.431,0,0,1,.832.23.849.849,0,0,1,.294.7A.976.976,0,0,1,303.307,70.5Zm-.351-.064a.592.592,0,0,0,.2-.488.524.524,0,0,0-.2-.466.858.858,0,0,0-.574-.172h-.718v1.306h.718A.875.875,0,0,0,302.956,70.439Z" fill="#fff"/>
      <path id="Path_6838" data-name="Path 6838" d="M14.483,85.826,9.469,90.977v8.1H3.594V67.4H9.469V83.66L25.079,67.4h6.593L18.429,81.58,32.482,99.105H25.624Z" fill="#fff"/>
      <path id="Path_6839" data-name="Path 6839" d="M51.867,67.4h5.868v31.7H51.867Z" fill="#fff"/>
      <path id="Path_6840" data-name="Path 6840" d="M88.065,72.383H77.605V67.4h26.786v4.979H93.94V99.105H88.065Z" fill="#fff"/>
      <path id="Path_6841" data-name="Path 6841" d="M121.5,83.251c0-9.455,7.2-16.306,16.909-16.306,5.15,0,9.562,1.851,12.5,5.287l-3.8,3.587a11.061,11.061,0,0,0-8.436-3.7c-6.535,0-11.263,4.627-11.263,11.134s4.728,11.141,11.263,11.141a10.946,10.946,0,0,0,8.436-3.766l3.8,3.616c-2.934,3.443-7.346,5.294-12.525,5.294C128.7,99.536,121.5,92.714,121.5,83.251Z" fill="#fff"/>
      <path id="Path_6842" data-name="Path 6842" d="M199.977,67.4v31.7H194.1V85.511H177.774V99.105H171.9V67.4h5.876V80.475H194.1V67.4Z" fill="#fff"/>
      <path id="Path_6843" data-name="Path 6843" d="M247.525,94.155v4.95H223.852V67.4h23.035v4.95h-17.16V80.6h15.23v4.857h-15.23v8.73h17.8Z" fill="#fff"/>
      <path id="Path_6844" data-name="Path 6844" d="M297.489,67.4v31.7h-4.813l-17.4-21.464V99.105h-5.811V67.4h4.806l17.4,21.464V67.4Z" fill="#fff"/>
    </g>
  </g>
</svg>
