<svg xmlns="http://www.w3.org/2000/svg" fill="none" viewBox="0 0 305 100" height="100" width="305">
<path fill="#84BD00" d="M22.2315 30.9329C21.2487 30.9329 19.4337 30.9329 19.4337 32.4967C19.4337 33.5943 20.5313 33.8311 20.8757 33.8885C21.3061 33.9745 21.9446 33.9745 22.5759 33.9745C33.3724 33.9745 41.2061 26.2197 41.2061 15.5523C41.2061 11.4704 39.1329 8.03419 37.3466 6.32683C36.1988 5.25794 32.7411 1.95801 23.3219 1.95801C21.593 1.95801 19.6346 2.0154 17.7336 2.07279C15.9832 2.13018 14.2543 2.18757 12.8124 2.18757C11.9515 2.18757 10.653 2.15887 9.15373 2.10148C7.10921 2.04409 4.57687 1.95801 2.36017 1.95801C1.63562 1.95801 0 1.95801 0 3.37124C0 4.00971 0.34434 4.79165 1.98713 4.79165C3.07755 4.79165 4.17513 4.87773 4.63425 4.99251C6.5353 5.40142 7.05182 6.11879 7.19529 8.46462C7.33877 10.7817 7.33877 12.7761 7.33877 23.8811V36.7221C7.33877 43.4009 7.33877 49.1542 6.99442 52.1672C6.70747 54.2476 6.39183 55.3165 5.49511 55.4887C4.66295 55.6895 3.85231 55.7828 3.02015 55.7828C1.34867 55.7828 1.09041 56.615 1.09041 57.11C1.09041 57.6623 1.37736 58.5877 3.30711 58.5877C4.9786 58.5877 7.1666 58.4945 9.06764 58.4371C10.4809 58.3797 11.7435 58.351 12.468 58.351C13.1854 58.351 14.3117 58.3797 15.6603 58.4371C17.9416 58.4945 20.7609 58.5877 23.7237 58.5877C25.3091 58.5877 25.8614 57.8058 25.8614 57.11C25.8614 56.7943 25.7108 55.7828 23.9604 55.7828C22.8915 55.7828 21.3061 55.6322 20.3592 55.4887C18.9172 55.2878 18.4007 54.5346 18.1712 52.2246C17.8196 49.1255 17.8196 43.3722 17.8196 36.6934V7.5392C17.8196 6.98682 17.9416 6.84335 17.9416 6.84335C18.372 6.69987 19.319 6.61378 20.4739 6.61378C21.9159 6.61378 24.7352 6.95813 27.2101 9.27525C30.84 12.5106 31.2705 16.7647 31.2705 19.6557C31.2131 26.6573 26.0049 30.9329 22.2315 30.9329Z"></path>
<path fill="#84BD00" d="M100.273 55.8117C99.7567 55.8117 99.1183 55.7472 98.3722 55.6037C97.2459 55.3741 94.4553 54.8218 90.6532 50.8618C86.9085 46.9019 82.6186 41.4642 77.1737 34.5774L75.4161 32.3535C81.9299 26.9158 84.6918 21.9444 84.6918 15.8969C84.6918 11.0689 81.9586 6.98705 79.4191 5.28686C75.244 2.41736 70.0932 2.01562 65.6239 2.01562C64.5335 2.01562 62.6612 2.07302 60.7314 2.13041C58.7156 2.1878 56.6711 2.24519 55.4013 2.24519C54.8274 2.24519 53.7944 2.21649 52.5246 2.1878C50.4514 2.13041 47.833 2.04432 45.4656 2.04432C44.7483 2.04432 43.1055 2.04432 43.1055 3.46473C43.1055 4.09602 43.4498 4.87796 45.0926 4.87796C46.1615 4.87796 47.2806 4.96404 47.7397 5.07882C49.6408 5.48773 50.1645 6.18358 50.3079 8.55093C50.4514 10.8681 50.4514 12.8624 50.4514 23.9674V36.8084C50.4514 43.4872 50.4514 49.2406 50.0784 52.2535C49.7556 54.5922 49.3825 55.4315 48.5791 55.6037C47.7397 55.8117 46.9363 55.8978 46.1041 55.8978C44.4326 55.8978 44.1744 56.7371 44.1744 57.225C44.1744 57.7773 44.4613 58.7028 46.3911 58.7028C48.1199 58.7028 50.4514 58.6167 52.3238 58.5593C53.615 58.4947 54.7126 58.466 55.2578 58.466C55.6309 58.466 56.4702 58.4947 57.5893 58.5306C59.8132 58.588 63.1203 58.7028 65.9468 58.7028C67.8478 58.7028 68.1348 57.7773 68.1348 57.225C68.1348 56.6152 67.6972 55.8978 66.5207 55.8978C65.6813 55.8978 64.1031 55.7472 63.0629 55.6037C61.621 55.4315 61.1332 54.6496 60.8749 52.2822C60.5306 49.2406 60.5306 43.4585 60.5306 36.751V35.9117L66.6354 36.0265C67.0946 36.0265 67.238 36.0839 67.3815 36.256C67.9626 36.8945 69.3686 38.9462 71.0401 41.3207C72.1664 42.9133 73.3716 44.6709 74.5553 46.2634C78.96 52.3396 81.6071 55.5176 84.7492 57.225C86.8224 58.3512 88.7809 58.7028 92.8699 58.7028H99.7854C101.191 58.7028 101.916 58.2078 101.916 57.225C101.916 56.5291 101.478 55.8117 100.273 55.8117ZM74.6127 19.5125C74.6127 25.933 72.109 28.7379 70.6384 29.8355C69.4834 30.6748 68.68 30.9331 65.9468 30.9331C63.9309 30.9331 61.9725 30.6748 60.674 30.2444C60.6166 30.2157 60.5879 30.187 60.5879 30.187C60.5879 30.187 60.5306 30.1009 60.5306 29.6346V7.45334C60.5306 7.25248 60.5593 7.19509 60.5593 7.16639C61.3627 6.92966 62.9768 6.90096 64.2753 6.90096C68.1061 6.92966 74.6127 9.59113 74.6127 19.5125Z"></path>
<path fill="#84BD00" d="M123.108 55.8117C122.046 55.8117 120.49 55.6611 119.507 55.5176C117.986 55.3167 117.462 54.6783 117.233 52.5979C116.946 49.506 116.946 43.8674 116.946 36.7223V23.8813C116.946 12.7763 116.946 10.782 117.089 8.46484C117.233 5.80338 117.871 5.25817 119.134 5.02143C119.944 4.87796 120.49 4.82057 121.178 4.82057C122.764 4.82057 123.108 4.00993 123.108 3.34277C123.108 2.01563 121.379 2.01562 120.805 2.01562C119.277 2.01562 117.29 2.07302 115.504 2.13041C114.069 2.1878 112.771 2.21649 111.967 2.21649C110.984 2.21649 109.485 2.1591 107.878 2.13041C106.006 2.07302 104.019 2.01562 102.519 2.01562C101.773 2.01562 100.016 2.01563 100.016 3.34277C100.016 4.00993 100.36 4.82057 101.945 4.82057C102.892 4.82057 103.703 4.90665 104.363 5.07882C105.281 5.28686 106.121 5.83207 106.293 8.46484C106.436 10.782 106.436 12.7763 106.436 23.8813V36.7223C106.436 43.8674 106.436 49.506 106.092 52.5405C105.862 54.8576 105.367 55.3741 104.592 55.5176C104.047 55.6324 103.237 55.8117 102.118 55.8117C100.446 55.8117 100.216 56.6439 100.216 57.1389C100.216 57.6913 100.503 58.6167 102.433 58.6167C104.105 58.6167 106.293 58.5306 108.194 58.466C109.6 58.4086 110.87 58.3799 111.587 58.3799C112.34 58.3799 113.488 58.4086 114.901 58.466C117.147 58.5306 119.973 58.6167 122.907 58.6167C124.493 58.6167 125.038 57.8347 125.038 57.1389C125.009 56.8232 124.866 55.8117 123.108 55.8117Z"></path>
<path fill="#84BD00" d="M258.235 55.8113C257.546 55.8113 256.449 55.7467 255.323 55.5172C254.376 55.2876 252.331 54.8213 249.483 48.0278C246.858 41.7507 241.908 29.2899 237.933 19.2538C234.877 11.5563 232.23 4.90623 231.484 3.14148C230.76 1.52021 230.157 0.365234 228.973 0.365234C227.682 0.365234 227.101 1.67086 226.24 3.75125L208.012 49.563C206.484 53.4081 205.242 55.2876 202.423 55.6607C201.907 55.718 200.924 55.8113 200.264 55.8113C198.793 55.8113 198.621 56.7367 198.621 57.1385C198.621 58.6162 200.235 58.6162 200.752 58.6162C203.341 58.6162 205.996 58.4943 207.753 58.4369C208.528 58.4082 209.073 58.3795 209.332 58.3795C210.429 58.3795 211.756 58.4369 213.076 58.4943C214.461 58.5589 215.845 58.6162 217.022 58.6162C218.349 58.6162 219.009 58.1213 219.009 57.1385C219.009 55.8113 217.718 55.8113 217.165 55.8113H216.075C213.944 55.8113 213.944 54.8572 213.944 54.3048C213.944 53.5229 214.289 51.8442 214.977 50.1369L218.894 39.699C218.894 39.6703 218.923 39.6416 218.923 39.6129H235.021L240.839 55.0868C240.925 55.3163 240.954 55.4598 240.867 55.5746C240.81 55.6894 240.724 55.7467 240.667 55.7467C240.351 55.7826 239.11 55.8974 239.11 57.1385C239.11 58.3221 240.351 58.3795 241.678 58.4369L241.994 58.4656C247.84 58.6162 253.192 58.6162 255.76 58.6162C258.149 58.6162 259.849 58.6162 259.849 57.1385C259.935 56.5287 259.62 55.8113 258.235 55.8113ZM233.12 34.4335H220.91L227.101 17.8334L233.12 34.4335Z"></path>
<path fill="#84BD00" d="M296.937 45.7463C295.589 45.7463 295.445 47.0735 295.388 47.5111C295.237 48.7521 294.434 50.6317 293.688 51.471C292.131 53.1497 289.656 53.2644 285.739 53.2644C280.151 53.2644 278.479 52.7407 277.446 51.844C276.176 50.7464 276.176 45.1652 276.176 36.7504V23.9094C276.176 12.8331 276.176 10.8101 276.32 8.49294C276.463 5.83147 277.095 5.28626 278.364 5.04953C279.225 4.90605 280.352 4.84866 281.069 4.84866C282.453 4.84866 283.142 4.36085 283.142 3.43543C283.142 2.01502 281.449 2.01502 280.868 2.01502C279.254 2.01502 276.894 2.07241 274.792 2.1298C273.178 2.18719 271.743 2.21589 270.99 2.21589C270.158 2.21589 268.83 2.18719 267.338 2.1298C265.323 2.07241 262.984 1.98633 261.054 1.98633C260.423 1.98633 258.723 1.98633 258.723 3.39956C258.723 4.03803 259.067 4.81997 260.71 4.81997C261.607 4.81997 262.41 4.90605 262.926 5.02083C264.828 5.42974 265.351 6.11842 265.495 8.49294C265.638 10.8101 265.638 12.8044 265.638 23.9094V36.7504C265.638 43.4292 265.638 49.1826 265.258 52.1955C264.942 54.5342 264.569 55.4022 263.766 55.5457C262.926 55.7466 262.152 55.8398 261.32 55.8398C259.648 55.8398 259.39 56.6791 259.39 57.167C259.39 57.7193 259.677 58.6448 261.607 58.6448C262.324 58.6448 263.127 58.6161 263.967 58.5874C264.828 58.5587 265.753 58.4941 266.614 58.4941C268.371 58.4367 269.985 58.4367 270.76 58.4367C273.673 58.4367 276.205 58.4941 279.577 58.6735L282.167 58.7308C284.871 58.8169 287.956 58.8743 291.873 58.8743C295.56 58.8743 296.564 58.5874 297.167 56.3276C297.777 54.1325 298.293 48.6087 298.293 47.7406C298.264 47.1022 298.264 45.7463 296.937 45.7463Z"></path>
<path fill="#84BD00" d="M199.367 55.8685C198.448 55.8685 197.15 55.7824 195.22 55.2014C193.613 54.7064 192.946 53.1783 192.286 48.6374L185.866 4.84866C185.607 2.96913 184.911 1.98633 183.85 1.98633C182.666 1.98633 182.15 3.05522 181.633 4.09542L163.11 43.1422L144.537 4.6191C143.648 2.82566 143.038 1.98633 141.948 1.98633C141.252 1.98633 140.362 2.41675 140.018 4.44693L133.016 50.689C132.672 53.0923 132.156 55.3448 130.714 55.6605C129.738 55.8685 129.3 55.8685 128.755 55.8685C127.112 55.8685 126.883 56.6433 126.883 57.1096C126.883 57.6907 127.141 58.6448 128.899 58.6448C130.168 58.6448 131.811 58.5874 133.246 58.4941C134.344 58.4367 135.29 58.408 135.872 58.408C136.359 58.408 137.163 58.4367 138.117 58.4941C139.616 58.5587 141.481 58.6448 143.268 58.6448C143.935 58.6448 145.721 58.6448 145.721 57.1096C145.721 56.9087 145.635 55.8685 143.906 55.8685C143.038 55.8685 142.12 55.7466 141.108 55.517C139.76 55.2014 139.588 54.5629 139.588 53.989C139.588 52.9416 139.645 52.0736 139.788 50.7464L143.182 24.6626C143.992 26.3987 144.91 28.3356 145.779 30.1864C147.558 34.0029 149.258 37.5897 149.638 38.4865C150.47 40.4521 155.972 51.1482 157.787 54.6203L157.988 55.0005C159.251 57.3678 159.889 58.5587 160.922 58.5587C162.077 58.5587 162.536 57.6333 164.208 54.1612L178.72 23.7946L182.695 52.9129C182.924 54.4768 182.781 55.0579 182.723 55.2014C182.322 55.3735 181.576 55.7824 181.576 56.6433C181.576 57.9489 183.154 58.0924 184.309 58.1785C187.186 58.3793 196.892 58.6161 198.707 58.6161C201.038 58.6161 201.296 57.54 201.296 57.0809C201.239 56.2989 200.608 55.8685 199.367 55.8685Z"></path>
<path fill="#5E514D" d="M303.68 68.1289C304.082 68.3585 304.397 68.71 304.656 69.1117C304.885 69.5135 305 69.9798 305 70.4747C305 70.9626 304.885 71.4002 304.656 71.8306C304.426 72.2323 304.111 72.5838 303.68 72.8134C303.278 73.0716 302.812 73.1864 302.324 73.1864C301.836 73.1864 301.377 73.0716 300.968 72.8134C300.567 72.5838 300.251 72.2323 299.993 71.8306C299.763 71.4289 299.648 70.9626 299.648 70.5034C299.648 70.0084 299.763 69.578 299.993 69.1404C300.222 68.71 300.538 68.3872 300.968 68.1576C301.377 67.9281 301.836 67.7846 302.324 67.7846C302.812 67.7559 303.278 67.8707 303.68 68.1289ZM303.508 72.469C303.881 72.261 304.139 71.9741 304.369 71.6297C304.57 71.2782 304.684 70.8765 304.684 70.4389C304.684 70.0084 304.57 69.6354 304.369 69.2839C304.168 68.9396 303.881 68.6526 303.537 68.4446C303.185 68.2437 302.783 68.1289 302.353 68.1289C301.923 68.1289 301.521 68.2437 301.169 68.4446C300.825 68.6526 300.538 68.9396 300.337 69.2839C300.136 69.6354 300.021 70.0371 300.021 70.4747C300.021 70.9052 300.136 71.2782 300.337 71.6297C300.538 71.9741 300.825 72.261 301.169 72.469C301.521 72.6699 301.923 72.7847 302.353 72.7847C302.726 72.7847 303.128 72.6986 303.508 72.469ZM303.307 70.5034C303.185 70.6469 303.042 70.7617 302.841 70.8191L303.508 71.7732H303.099L302.525 70.8765C302.496 70.8765 302.439 70.8765 302.353 70.8765H301.636V71.7445H301.291V68.9682H302.353C302.697 68.9682 302.984 69.0543 303.185 69.1978C303.393 69.37 303.479 69.6067 303.479 69.8937C303.479 70.1519 303.422 70.3528 303.307 70.5034ZM302.956 70.4389C303.099 70.3241 303.156 70.1519 303.156 69.9511C303.156 69.7502 303.099 69.578 302.956 69.4848C302.812 69.37 302.64 69.3126 302.382 69.3126H301.664V70.6182H302.382C302.611 70.6182 302.812 70.5608 302.956 70.4389Z"></path>
<path fill="#5E514D" d="M14.4835 85.8265L9.46907 90.9773V99.0765H3.59375V67.4043H9.46907V83.6601L25.0792 67.4043H31.6719L18.4291 81.5797L32.4825 99.1052H25.6244L14.4835 85.8265Z"></path>
<path fill="#5E514D" d="M51.8672 67.4043H57.7353V99.1052H51.8672V67.4043Z"></path>
<path fill="#5E514D" d="M88.0648 72.3829H77.6055V67.4043H104.392V72.3829H93.9401V99.1052H88.0648V72.3829Z"></path>
<path fill="#5E514D" d="M121.496 83.2513C121.496 73.7963 128.699 66.9453 138.405 66.9453C143.555 66.9453 147.967 68.7961 150.901 72.2324L147.099 75.8193C144.796 73.3371 141.977 72.1176 138.663 72.1176C132.128 72.1176 127.4 76.7447 127.4 83.2513C127.4 89.7651 132.128 94.3922 138.663 94.3922C141.949 94.3922 144.796 93.1726 147.099 90.6259L150.901 94.2415C147.967 97.6849 143.555 99.5358 138.376 99.5358C128.699 99.5358 121.496 92.7135 121.496 83.2513Z"></path>
<path fill="#5E514D" d="M199.977 67.4043V99.1052H194.101V85.5109H177.774V99.1052H171.898V67.4043H177.774V80.4749H194.101V67.4043H199.977Z"></path>
<path fill="#5E514D" d="M247.525 94.1553V99.1052H223.852V67.4043H246.887V72.3542H229.727V80.5969H244.957V85.4535H229.727V94.184H247.525V94.1553Z"></path>
<path fill="#5E514D" d="M297.489 67.4043V99.1052H292.676L275.28 77.6413V99.1052H269.469V67.4043H274.275L291.672 88.8682V67.4043H297.489Z"></path>
</svg>
